<?xml version="1.0" encoding="UTF-8" standalone="no"?>
<svg
   id="svg3004"
   version="1.1"
   inkscape:version="1.1.2 (1:1.1+202202050950+0a00cf5339)"
   width="1280"
   height="640"
   xml:space="preserve"
   sodipodi:docname="community_picture.svg"
   inkscape:export-filename="/home/igorm/Projects/Pet/jprol/art/community_picture.png"
   inkscape:export-xdpi="96"
   inkscape:export-ydpi="96"
   xmlns:inkscape="http://www.inkscape.org/namespaces/inkscape"
   xmlns:sodipodi="http://sodipodi.sourceforge.net/DTD/sodipodi-0.dtd"
   xmlns="http://www.w3.org/2000/svg"
   xmlns:svg="http://www.w3.org/2000/svg"
   xmlns:rdf="http://www.w3.org/1999/02/22-rdf-syntax-ns#"
   xmlns:cc="http://creativecommons.org/ns#"
   xmlns:dc="http://purl.org/dc/elements/1.1/"><metadata
     id="metadata3010"><rdf:RDF><cc:Work
         rdf:about=""><dc:format>image/svg+xml</dc:format><dc:type
           rdf:resource="http://purl.org/dc/dcmitype/StillImage" /><dc:title /></cc:Work></rdf:RDF></metadata><defs
     id="defs3008"><filter
       inkscape:collect="always"
       style="color-interpolation-filters:sRGB"
       id="filter80672"
       x="-0.020340128"
       y="-0.020340541"
       width="1.0406803"
       height="1.0406811"><feGaussianBlur
         inkscape:collect="always"
         stdDeviation="2.8869924"
         id="feGaussianBlur80674" /></filter></defs><sodipodi:namedview
     pagecolor="#ffffff"
     bordercolor="#666666"
     borderopacity="1"
     objecttolerance="10"
     gridtolerance="10"
     guidetolerance="10"
     inkscape:pageopacity="0"
     inkscape:pageshadow="2"
     inkscape:window-width="1920"
     inkscape:window-height="1016"
     id="namedview3006"
     showgrid="false"
     inkscape:zoom="0.53206501"
     inkscape:cx="954.77055"
     inkscape:cy="487.72236"
     inkscape:window-x="1428"
     inkscape:window-y="27"
     inkscape:window-maximized="1"
     inkscape:current-layer="g3012"
     inkscape:document-rotation="0"
     showguides="true"
     inkscape:guide-bbox="true"
     inkscape:pagecheckerboard="0"><sodipodi:guide
       position="241.08,76.28125"
       orientation="0,-1"
       id="guide866" /></sodipodi:namedview><g
     id="g3012"
     inkscape:groupmode="layer"
     inkscape:label="ink_ext_XXXXXX"
     transform="matrix(1.25,0,0,-1.25,0,221.25)"><rect
       style="opacity:0.99464;fill:#ffffff;stroke:none;stroke-width:39.8673;stroke-linecap:round;stroke-linejoin:round;fill-opacity:1"
       id="rect868"
       width="1024"
       height="512"
       x="0"
       y="-177"
       transform="scale(1,-1)" /><path
       d="m 13.800516,-184.62656 c 94.401674,41.8538 165.940294,76.23094 269.383574,127.952464 14.3427,7.171801 29.3253,11.200018 44.83779,12.928642 -15.51249,-1.728624 -30.49509,-5.756841 -44.83779,-12.928642 C 179.74081,-108.39562 108.20219,-142.77276 13.800516,-184.62656 Z M 2.81016,-160.02959 c 94.029004,41.68815 165.21242,75.898465 268.32363,127.454292 24.34533,12.171765 49.35749,16.927221 74.78055,17.147256 -25.42306,-0.220035 -50.43522,-4.975491 -74.78055,-17.147256 C 168.02258,-84.131125 96.839164,-118.34144 2.81016,-160.02959 Z m 583.49042,75.233644 c 17.98901,-0.170191 35.94433,1.577069 53.75371,6.085097 -17.80938,-4.508028 -35.7647,-6.255288 -53.75371,-6.085097 z m -26.99473,1.592785 c -71.97397,7.521613 -143.58197,38.997204 -207.63243,40.432148 64.05046,-1.434944 135.65846,-32.910535 207.63243,-40.432148 z m 107.34127,13.435621 c 8.81713,3.742396 17.58486,8.280285 26.28972,13.720544 C 816.58542,21.232298 895.95303,97.404904 1009.2038,162.91029 895.95303,97.404904 816.58542,21.232298 692.93684,-56.046996 c -8.70486,-5.440259 -17.47259,-9.978148 -26.28972,-13.720544 z m -87.77609,11.813872 c -68.20194,2.710025 -138.95899,34.725152 -207.40791,41.3426 68.44892,-6.617448 139.20597,-38.632575 207.40791,-41.3426 z m 25.44775,0.462972 c 25.30854,2.051492 50.17252,9.187144 74.33598,24.289195 C 781.99274,31.385352 856.72389,97.692297 948.64473,157.31511 856.72389,97.692297 781.99274,31.385352 678.65476,-33.201501 654.4913,-48.303552 629.62732,-55.439204 604.31878,-57.490696"
       style="fill:#000000;fill-opacity:1;fill-rule:evenodd;stroke:none;stroke-width:0.224526"
       id="path3020" /><path
       d="m 582.07573,-167.00133 -0.38394,14.54679 2.02298,9.56525 1.57617,3.27583 -12.8092,7.0189 -1.90398,-3.10115 -6.9805,-6.84983 -12.45669,-7.51016 -7.59122,5.55881 3.39932,14.14063 4.42765,8.72058 2.37099,2.75044 -10.56169,10.0949 -2.63593,-2.48819 -8.51177,-4.81765 -13.97897,-4.02844 -5.8938,7.33054 6.94682,12.77349 6.53146,7.285638 3.0064,2.039143 -7.58673,12.488346 -3.20174,-1.727052 -9.46376,-2.453842 -14.54253,-0.2719 -3.79224,8.603826 10.01609,10.557201 8.18397,5.336753 3.42851,1.190211 -4.09086,14.025899 -3.53179,-0.841972 -9.78035,0.08756 -14.11593,3.498561 -1.44594,9.297835 12.40953,7.599523 9.29761,3.031098 3.61936,0.26494 -0.33005,14.609891 -3.63058,0.1062007 -9.42335,2.6128061 -12.73061,7.0321465 1.02159,9.3422917 13.94081,4.131948 9.76013,0.529656 3.5722,-0.678068 3.46219,14.190028 -3.47566,1.039554 -8.42645,4.964264 -10.47861,10.090187 3.40605,8.769976 14.54253,0.372713 9.56929,-2.009506 3.26011,-1.589642 7.02317,12.818175 -3.09396,1.903978 -6.85029,6.976016 -7.51038,12.458933 5.55252,7.586725 14.13839,-3.399319 8.72507,-4.423158 2.75044,-2.379973 10.09917,10.561692 -2.48775,2.642668 -4.81832,8.518499 -4.03473,13.96999 7.3375,5.88932 12.77776,-6.93561 7.28137,-6.53369 2.03645,-3.00865 12.48588,7.59346 -1.7266,3.19725 -2.4406,9.46376 -0.28066,14.54029 8.61281,3.79448 10.54822,-10.01609 5.33249,-8.1907 1.19896,-3.42851 14.02164,4.09759 -0.84197,3.5273 0.092,9.78933 3.49362,14.11369 9.29761,1.43696 7.59571,-12.40056 3.03559,-9.3021 0.26494,-3.6216 14.6054,0.32781 0.10328,3.62833 2.61797,9.43009 7.02766,12.73061 9.35374,-1.01486 4.12678,-13.95652 0.53437,-9.76238 -0.68705,-3.5722 14.19003,-3.4577 1.05078,3.48239 4.95753,8.42645 10.09243,10.47413 8.76549,-3.39932 0.38394,-14.54253 -2.02522,-9.56704 -1.58291,-3.27359 12.81817,-7.02317 1.90398,3.09846 6.97602,6.84804 12.45669,7.51712 7.58897,-5.55926 -3.39483,-14.14063 -4.43214,-8.72283 -2.37099,-2.750433 10.55271,-10.094677 2.64491,2.494481 8.52075,4.820568 13.97,4.027991 5.8938,-7.33301 -6.94009,-12.780006 -6.53819,-7.285861 -3.00416,-2.036448 7.59346,-12.481387 3.19051,1.726603 9.46825,2.440595 14.54478,0.280657 3.79673,-8.612807 -10.01609,-10.543729 -8.19519,-5.336978 -3.433,-1.194477 4.09984,-14.028368 3.53404,0.844216 9.78483,-0.08757 14.11818,-3.502826 1.43247,-9.293345 -12.40056,-7.592563 -9.3021,-3.0380579 -3.6216,-0.2692063 0.32781,-14.6101148 3.62609,-0.09902 9.42784,-2.619767 12.73959,-7.032146 -1.01935,-9.349477 -13.94978,-4.127457 -9.76912,-0.527186 -3.56771,0.685028 -3.46219,-14.199458 3.48239,-1.032369 8.42645,-4.969204 10.47862,-10.089738 -3.39932,-8.765261 -14.54702,-0.378101 -9.57153,2.011975 -3.2691,1.585825 -7.01418,-12.812112 3.08947,-1.908469 6.85702,-6.977812 7.50814,-12.456688 -5.55477,-7.58223 -14.14288,3.39415 -8.72507,4.42833 -2.75044,2.37772 -10.09467,-10.56685 2.49448,-2.63975 4.82056,-8.50481 4.028,-13.97942 -7.32852,-5.8938 -12.78001,6.94278 -7.28586,6.53145 -2.03645,3.00551 -12.49261,-7.59077 1.73334,-3.19253 2.44508,-9.4687 0.27617,-14.55107 -8.60383,-3.7837 -10.55495,10.0116 -5.33923,8.19519 -1.18549,3.43367 -14.03286,-4.10298 0.84871,-3.52663 -0.0943,-9.78955 -3.50036,-14.11189 -9.29312,-1.43921 -7.59346,12.40325 -3.03784,9.29761 -0.26943,3.61981 -14.6054,-0.33073 -0.10328,-3.62586 -2.61123,-9.42829 -7.03664,-12.72769 -9.34925,1.01912 -4.12679,13.94328 -0.53212,9.7644 0.6848,3.56951 -14.19901,3.46712 -1.03731,-3.48194 -4.96201,-8.4269 -10.09468,-10.47884 z m 8.37032,71.01502 17.60506,45.356896 -7.0546,8.32317 c -4.2121,6.073646 -7.22748,12.912027 -8.86876,20.124018 l -1.38308,10.821917 -45.38115,17.6122487 -0.51865,-3.7994247 c -4.32661,-37.392294 12.09969,-74.521444 42.69806,-96.46457 l 2.89863,-1.974255 z m 42.10756,-16.343 3.46218,-0.49643 c 37.38803,-4.44045 74.56725,11.88235 96.59996,42.406402 l 2.1779,3.152117 -45.36543,17.605289 -8.32541,-7.05415 c -6.07118,-4.217043 -12.91472,-7.232199 -20.11751,-8.873258 l -10.83112,-1.383079 z m 5.89829,77.59834 c 13.94978,-5.415112 29.66659,1.513753 35.08215,15.461517 5.41331,13.9495601 -1.51331,29.666363 -15.46309,35.082148 C 644.12342,21.227583 628.40662,14.298943 622.99106,0.34938225 617.57998,-13.598382 624.50436,-29.315184 638.4519,-34.73097 Z m -31.37074,65.48316 8.32991,7.054599 c 6.07342,4.216593 12.91696,7.231974 20.1175,8.871012 l 10.82663,1.385324 17.59833,45.34073 -3.47341,0.507428 C 623.0876,98.343421 585.91063,82.020399 563.88016,51.50735 l -2.17341,-3.143361 z m 144.05572,-55.909382 0.51192,3.785504 c 4.32886,37.387804 -12.10643,74.518076 -42.69582,96.469958 l -2.89638,1.964601 -17.60057,-45.33624 7.06358,-8.33215 c 4.20986,-6.071626 7.22524,-12.90821 8.86428,-20.121998 l 1.39205,-10.8261826 45.36094,-17.6034924"
       style="fill:#000000;fill-opacity:1;fill-rule:evenodd;stroke:none;stroke-width:0.224526;filter:url(#filter80672)"
       id="path3024" /><path
       d="m 578.66967,-162.20996 -0.38394,14.5477 2.02298,9.56435 1.57617,3.27583 -12.80919,7.0189 -1.90398,-3.10115 -6.98051,-6.84983 -12.45669,-7.51016 -7.59121,5.55881 3.39932,14.14063 4.42765,8.72058 2.37099,2.75044 -10.56169,10.0949 -2.63594,-2.48819 -8.51177,-4.81765 -13.97897,-4.02844 -5.8938,7.33054 6.94683,12.773267 6.53145,7.28586 3.0064,2.039143 -7.58672,12.488347 -3.20174,-1.727052 -9.46376,-2.453842 -14.54254,-0.271901 -3.79224,8.603827 10.0161,10.557201 8.18396,5.336752 3.42851,1.190211 -4.09086,14.025899 -3.53179,-0.841971 -9.78034,0.08756 -14.11593,3.49856 -1.44595,9.297611 12.40954,7.599748 9.29761,3.031098 3.61935,0.26494 -0.33005,14.6098905 -3.63058,0.10620068 -9.42335,2.61258162 -12.73061,7.032371 1.0216,9.3427412 13.9408,4.131274 9.76013,0.52988 3.57221,-0.678067 3.46219,14.190027 -3.47566,1.039554 -8.42645,4.964265 -10.47862,10.090187 3.40606,8.769976 14.54253,0.372712 9.56929,-2.009505 3.26011,-1.589642 7.02316,12.818175 -3.09396,1.903978 -6.85028,6.976015 -7.51039,12.458934 5.55252,7.586734 14.13839,-3.399329 8.72507,-4.423157 2.75044,-2.379973 10.09917,10.561699 -2.48774,2.64266 -4.81833,8.51851 -4.03473,13.96998 7.33751,5.88931 12.77776,-6.93559 7.28137,-6.53369 2.03645,-3.00865 12.48587,7.59346 -1.7266,3.19725 -2.4406,9.46375 -0.28065,14.54029 8.61281,3.79448 10.54821,-10.01608 5.33249,-8.1907 1.19897,-3.42851 14.02163,4.09759 -0.84197,3.5273 0.0921,9.78933 3.49362,14.11369 9.29761,1.43696 7.5957,-12.40057 3.03559,-9.30209 0.26494,-3.6216 14.6054,0.3278 0.10328,3.62834 2.61797,9.43009 7.02766,12.73061 9.35374,-1.01486 4.12679,-13.95652 0.53437,-9.76238 -0.68705,-3.57222 14.19003,-3.45769 1.05078,3.48239 4.95753,8.42645 10.09243,10.47413 8.76548,-3.39932 0.38394,-14.54253 -2.02522,-9.56703 -1.58291,-3.27359 12.81818,-7.02317 1.90398,3.09846 6.97601,6.84804 12.45669,7.51712 7.58897,-5.55926 -3.39483,-14.14063 -4.43214,-8.72283 -2.37099,-2.75044 10.55271,-10.094681 2.64492,2.494481 8.52075,4.82057 13.96999,4.028 5.8938,-7.333021 -6.94009,-12.780006 -6.53819,-7.28586 -3.00415,-2.036449 7.59346,-12.481386 3.19051,1.726603 9.46825,2.440595 14.54478,0.280657 3.79673,-8.612808 -10.0161,-10.543729 -8.19519,-5.336977 -3.433,-1.194477 4.09984,-14.028369 3.53404,0.844217 9.78483,-0.08757 14.11818,-3.502602 1.43248,-9.29357 -12.40056,-7.5925624 -9.3021,-3.038058 -3.6216,-0.2694309 0.3278,-14.6098905 3.62609,-0.099016 9.42784,-2.6197662 12.73959,-7.032371 -1.01935,-9.349252 -13.94978,-4.126559 -9.76912,-0.528085 -3.56771,0.685028 -3.46219,-14.199457 3.4824,-1.03237 8.42645,-4.969428 10.47862,-10.089514 -3.39932,-8.76526 -14.54703,-0.378102 -9.57153,2.011976 -3.2691,1.585825 -7.01418,-12.812113 3.08947,-1.908469 6.85702,-6.977811 7.50814,-12.456692 -5.55476,-7.58223 -14.14288,3.39415 -8.72507,4.42833 -2.75044,2.377724 -10.09468,-10.566854 2.49448,-2.63998 4.82057,-8.50458 4.02799,-13.97942 -7.32852,-5.89381 -12.78001,6.94279 -7.28586,6.53145 -2.03644,3.00551 -12.49262,-7.59077 1.73334,-3.19253 2.44509,-9.4687 0.27616,-14.55129 -8.60382,-3.78348 -10.55496,10.0116 -5.33922,8.19519 -1.1855,3.43367 -14.03286,-4.10298 0.84871,-3.52663 -0.0943,-9.78955 -3.50036,-14.11189 -9.29312,-1.43831 -7.59346,12.40235 -3.03783,9.29761 -0.26943,3.61958 -14.6054,-0.3305 -0.10328,-3.62586 -2.61124,-9.42739 -7.03664,-12.72859 -9.34925,1.01912 -4.12678,13.94327 -0.53213,9.76441 0.68481,3.5704 -14.19901,3.46601 -1.03731,-3.48172 -4.96202,-8.4269 -10.09468,-10.47907 z m 8.37032,71.01503 17.60507,45.356896 -7.0546,8.323169 c -4.21211,6.073646 -7.22749,12.912925 -8.86877,20.124019 l -1.38308,10.8219163 -45.38114,17.6122487 -0.51866,-3.7985264 c -4.32661,-37.3931916 12.0997,-74.5223416 42.69806,-96.4654676 l 2.89863,-1.974255 z m 42.10756,-16.343 3.46219,-0.49643 c 37.38803,-4.44045 74.56725,11.88235 96.59996,42.406402 l 2.1779,3.152117 -45.36543,17.605064 -8.32542,-7.05415 c -6.07117,-4.216819 -12.91472,-7.231975 -20.1175,-8.873034 l -10.83113,-1.383078 z m 5.89829,77.598115 c 13.94979,-5.414888 29.66659,1.513977 35.08215,15.461741 5.41332,13.94956057 -1.5133,29.666363 -15.46309,35.0817 -13.94754,5.415561 -29.66434,-1.513304 -35.0799,-15.4628642 -5.41107,-13.9477642 1.5133,-29.6645668 15.46084,-35.0805768 z m -31.37073,65.483384 8.3299,7.054599 c 6.07342,4.216594 12.91697,7.231975 20.11751,8.871012 l 10.82663,1.385324 17.59833,45.34073 -3.47342,0.507429 C 619.68155,103.1348 582.50457,86.811779 560.47411,56.298729 l -2.17341,-3.14336 z m 144.05572,-55.909381 0.51192,3.785279 c 4.32885,37.388477 -12.10643,74.5183 -42.69582,96.470183 l -2.89638,1.9646 -17.60058,-45.336239 7.06358,-8.332151 c 4.20986,-6.071176 7.22524,-12.90821 8.86428,-20.1219975 l 1.39206,-10.8264071 45.36094,-17.6032674"
       style="fill:#0073c9;fill-opacity:1;fill-rule:evenodd;stroke:none;stroke-width:0.224526"
       id="path3026" /><g
       id="g46471"
       style="fill:#000000;fill-opacity:1;stroke:none"><path
         d="m 109.93021,63.036837 q 0,-7.002891 -4.94322,-8.238681 0,8.238681 4.94322,8.238681 z m 34.19057,-88.154007 q -2.05968,-0.617902 -2.05968,-2.471607 0,-1.029836 1.02984,-3.295476 1.2358,-2.26564 1.2358,-3.295477 0,0.411935 -2.4716,-0.617902 -2.26564,-0.82387 -2.47161,-1.441772 v -0.411935 q 0,-1.235803 2.26564,-2.26564 2.26564,-0.823868 2.26564,-2.26564 0,-1.235803 -0.20596,-1.441769 v -0.205958 q 0,-1.235803 -2.47161,-1.853705 -2.26564,-0.411935 -2.26564,-3.707411 0,-2.883542 1.23581,-5.355148 1.2358,-2.471609 2.05967,-4.531282 1.02984,-2.059672 0.6179,-3.913379 -0.20596,-1.853705 -3.29548,-3.707412 0,4.737249 -2.88354,4.531283 -2.67757,0 -3.70741,-1.441772 v -0.617902 q 0,-0.823868 1.23581,-2.059673 1.2358,-1.235806 1.2358,-1.853708 0,-2.265639 -1.64774,-0.617901 -1.64774,1.647738 -3.91338,1.647738 -1.2358,0 -2.05967,-1.235803 -0.6179,-1.235803 -3.29548,-1.235803 h -3.91338 q -16.27141,0 -36.868141,6.796922 -0.617903,0.411933 -1.441771,1.853705 -0.823871,1.647738 -1.853705,3.295476 -0.823871,1.853705 -2.059674,3.295477 -1.235803,1.441772 -2.677575,1.441772 -1.441772,0 -3.08951,-0.411935 -1.647736,-0.411935 -3.089508,-0.411935 -1.029837,0 -2.26564,1.029836 -1.235803,1.235804 -2.677575,2.677576 -1.441772,1.441769 -2.677575,2.471606 -1.235803,1.235803 -2.26564,1.235803 -4.119345,0 -5.35515,1.029837 -1.029835,1.235805 -1.235804,2.883544 0,1.647736 -0.411935,3.295474 -0.205957,1.647739 -2.677573,2.471609 -0.617903,-0.411935 -0.617903,-1.853705 v -2.059673 q 0,-1.235804 -1.235804,-1.029837 -1.235803,0.205957 -2.677575,1.029837 -1.441769,1.029836 -2.677573,2.059673 -1.235805,1.235803 -1.441771,1.853705 1.029836,5.149181 2.26564,8.238692 1.235803,3.089508 3.295476,7.826756 2.471607,0 5.767083,-2.26564 3.295477,-2.26564 6.179021,-4.943215 3.089508,-2.677575 5.355148,-4.943215 2.26564,-2.26564 3.08951,-2.471606 14.41771,-8.856594 21.626567,-8.856594 2.26564,0 5.149182,-1.441772 3.08951,-1.441771 5.973055,-2.265639 2.88354,-0.823871 4.73724,0 2.05968,1.029836 2.05968,5.767083 0,2.883541 -0.61791,4.119347 -0.6179,1.235803 1.44178,1.235803 3.50144,0 3.50144,4.943215 0,2.677575 -2.67758,7.208855 -2.4716,4.53128 -2.4716,6.590953 0,2.677575 -0.6179,4.119345 -0.41194,1.441772 -0.41194,4.3253134 v 5.7670831 q 0,0.8238703 0.82387,1.2358055 1.02984,0.4119329 1.44177,0.4119329 3.08951,0 3.08951,2.6775751 0.20596,2.883546 -0.82387,6.5909601 -1.02984,3.9133939 -2.47161,8.0327229 -1.2358,4.119358 -1.2358,6.79694 0,5.149184 1.85371,10.916263 -1.85371,0.823852 -1.85371,3.913371 v 4.119352 l 3.29548,-8.856598 q 4.94321,3.707414 4.94321,11.122242 v 2.471602 q 0,0.823875 -1.02984,1.029832 -1.02983,0.411938 -1.8537,0.411938 h -2.05967 q -0.20596,0 -1.23581,-1.44177 -0.82387,-1.44177 -1.02983,-1.64775 -1.44177,0.617918 -2.05968,3.08952 -0.6179,2.677581 -1.02983,3.089496 l 0.41193,1.029855 q 0,0 1.85371,-1.647727 1.8537,-1.647772 2.67757,-1.647772 h 0.6179 q 1.44177,0 2.47161,2.059687 1.02984,2.059664 1.64774,4.531289 0.82387,2.471602 1.02984,4.737246 0.41193,2.265645 0.41193,2.677582 0,3.501434 -1.85371,5.973036 l -0.82386,8.032723 q 1.64773,0 2.67757,-1.853707 1.02984,-1.64775 1.64774,-3.707392 0.82387,-1.853729 1.2358,-3.707436 0.6179,-1.647727 1.23581,-1.647727 2.26564,0 2.88354,0.823874 0.6179,0.823853 0.6179,2.059665 0,1.029832 -0.20596,2.265644 -0.20596,1.235813 -0.20596,2.67756 v 2.677582 q 0,1.441769 -0.41193,2.883561 -0.20596,1.44177 -1.85371,2.47158 l -4.94321,-2.67756 q -0.41194,-0.20589 -0.6179,0.617895 -0.20596,0.823875 -0.20596,1.235813 v 2.059686 q 1.2358,0.205891 2.88354,1.853685 1.64774,1.853707 3.29548,3.913394 1.85371,2.059665 3.50144,3.707392 1.64774,1.853707 3.08951,2.059687 1.02984,-1.029833 2.88354,-0.617895 1.85371,0.411915 2.67758,0.411915 1.2358,0 2.26564,-1.647727 l 3.29548,3.295476 q 4.53128,-8.856597 4.53128,-22.450442 0,-4.531266 -0.61791,-9.68045 -0.6179,-4.943204 -1.64773,-10.916285 0,-1.647727 1.02983,-5.973036 1.02984,-4.119351 1.02984,-6.179038 0,-5.561099 -4.32531,-9.68045 6.59095,-12.76997 6.59095,-27.3936529 v -4.11935594 q 0,-2.67757506 -1.85371,-4.53127986 -1.64773,-1.6477384 -1.64773,-7.0028883 4.11934,-0.411935 4.11934,-3.501443 0,-1.441772 -0.82387,-4.119347 -0.6179,-2.677576 -0.6179,-3.70741 0,0.205957 0.41193,-1.853707 z m -5.35515,110.810406 h -1.64774 v -0.823874 h 1.64774 z m -7.20886,-0.823874 V 82.19178 q 0,0.411937 0.41194,0.823897 0.41193,0.617895 0.41193,0.823852 0,0.823875 -0.82387,1.029833 z m -5.76708,-8.032723 v 1.029832 l -0.82387,0.823875 z m 6.38498,-8.032723 v 1.853707 h -1.44177 z m -1.64773,-11.946095 h 0.20595 q 0,0 -0.6179,0.617895 -0.41193,0.823875 -1.44177,0.823875 -0.6179,0 -1.8537,1.235789 -1.02984,1.235812 -1.85371,1.235812 l -1.2358,-3.913371 q -0.41194,-0.823875 0.6179,-1.235812 1.02984,-0.411938 1.2358,-0.411938 0.41194,0 2.05968,0.823875 1.64773,1.029832 2.4716,1.029832 0.20596,0 0.41194,-0.20589 z m -1.64774,-4.737246 h -0.82387 V 49.85493 h 0.82387 z m 6.79692,-9.474516 q -0.20596,-0.20589 -2.05968,-0.20589 -2.88354,0 -8.65062,3.295455 l 1.8537,-4.943227 q 3.70742,-1.029809 4.53128,-1.029809 1.64774,0 2.67758,0.411937 1.02984,0.617872 1.64774,2.471579 z m -22.6564,-15.859466 q -0.61791,0.823875 -1.44177,0.823875 -2.47161,0 -2.47161,-2.677582 l 3.08951,-1.647727 q 1.02983,-0.617917 0.82387,1.44177 0,2.059664 0,2.059664 z m 11.9461,0 0.82387,-6.590953 h 1.8537 v 0.411937 q 0,0.20589 0,0.20589 0.20596,0.205891 0.20596,0.411938 0,1.235812 -1.44177,3.295476 -1.44177,2.059665 -1.44177,2.265645 z m 11.12223,-7.620785 h -5.35515 q -0.20596,0 -0.41193,-1.441777 -0.20596,-1.235812 -0.6179,-2.883539 -0.41194,-1.44177 -1.02984,-2.883539 -0.6179,-1.235813 -1.85371,-1.235813 l 1.23581,-1.6477491 q 1.44177,0 2.67757,1.4417701 1.44177,1.441792 2.47161,3.295476 1.02984,1.85373 1.64774,3.501457 0.82387,1.647734 1.2358,1.853714 z m 3.50145,-19.97883822 q 0,2.88354152 -0.61791,3.70741182 -0.41193,0.8238681 -1.02983,0.6179106 -0.6179,-0.2058901 -1.23581,-1.2358122 -0.41193,-1.0298367 -0.41193,-1.85370702 0,-0.82386805 0.82387,-1.64773838 2.05967,0 2.47161,0.41193518 z M 123.73002,-9.2576884 v 4.3253134 q 0,2.4716064 -0.82387,2.4716064 -0.82387,0.2059575 -1.44177,-1.0298367 -0.41194,-1.0298368 -0.20596,-2.8835416 0.41193,-1.6477383 2.47161,-2.8835415 z m -12.15207,-8.8565936 q -0.61791,8.4446584 -4.73725,10.2983632 0.82387,-4.3253112 1.64774,-7.0028862 0.82387,-2.471609 3.08951,-3.295477 z m 32.13089,0 q -1.44177,0 -2.88354,1.235803 -1.2358,1.441772 -2.26564,3.089511 -1.02984,1.647738 -1.85371,2.883541 -0.6179,1.4417721 -1.02983,1.6477386 l -1.85371,-7.8267566 q 1.44177,0 3.91338,-1.235803 2.67758,-1.029837 3.50144,-1.029837 1.44178,0 2.47161,1.235803 z m -23.8922,3.089508 q -1.02984,1.029837 -1.85371,1.029837 l 0.82387,-2.677575 q 0,0 0.41193,0.617904 0.61791,0.823868 0.61791,1.029834 z m 11.74013,-4.737246 -3.50144,-5.35515 0.82387,-0.411933 3.29547,5.355148 z M 49.169853,-30.884253 v -3.089511 l 0.82387,0.823871 q 0.823868,0.823868 -0.205957,1.441769 -0.823868,0.823871 -0.617902,0.823871 z m 79.709347,-8.032726 h -0.82387 v -1.853704 h 0.82387 z m -14.00578,-6.384984 q 0,0.617901 -0.82387,1.853704 -0.6179,1.235804 -1.02983,2.059674 l 1.02983,-5.35515 q 0,0 0.41194,0.411935 0.41193,0.617901 0.41193,1.029837 z m -46.548606,-0.823871 h 0.411933 q 0,0 -1.44177,1.235806 -1.441772,1.235803 -2.26564,1.235803 l -0.82387,-0.205957 q 1.235803,0.205957 2.26564,-1.029835 1.235805,-1.235805 1.853707,-1.235805 z m 67.763236,-1.647738 h -1.44177 v -1.235803 z"
         style="font-style:normal;font-variant:normal;font-weight:normal;font-stretch:normal;font-size:101.219px;line-height:1.25;font-family:'DS Eraser Cyr';-inkscape-font-specification:'DS Eraser Cyr';fill:#000000;fill-opacity:1;stroke:none;stroke-width:5.14916"
         id="path845" /><path
         d="m 280.64414,88.267649 c 0,-0.686555 -0.27462,-1.37311 -0.82388,-2.059665 -0.41193,-0.549257 -0.82387,-0.411937 -1.23581,0.411938 l -0.82387,0.823874 c -0.54924,0.549235 -0.20589,0.823853 1.02985,0.823853 z m 15.24157,-15.859467 -4.73725,3.913372 4.73725,-0.823875 z m 3.70741,-1.441769 v 1.441769 h 1.02984 c -0.13719,0 -0.41187,-0.274617 -0.82386,-0.823874 -0.27461,-0.549258 -0.34325,-0.755215 -0.20589,-0.617895 z m 5.76708,-6.590954 -0.20589,-1.235812 c -0.13718,0.411938 -0.75517,1.16713 -1.8537,2.265622 -1.0985,1.098492 -1.64775,2.059687 -1.64775,2.883562 v 0.411937 c 0,0.274618 0.61789,-0.274639 1.8537,-1.647749 1.23581,-1.373132 1.85371,-2.265645 1.85371,-2.67756 z m -139.23388,-6.179016 -4.53128,-2.883561 c -0.54925,0.961172 -0.82387,1.853707 -0.82387,2.677582 0,0.686554 0.41193,1.441769 1.2358,2.265644 l 2.05967,2.059664 c -0.13729,-0.137185 0.13732,-0.755169 0.82387,-1.853707 0.82387,-1.098492 1.23581,-1.853707 1.23581,-2.265622 z m -3.70741,-4.737268 v -5.767079 h -1.85371 c 0.1373,1.098492 0.20596,2.196985 0.20596,3.295477 0.1373,1.235812 0.68655,2.059664 1.64774,2.471602 z m 0.82386,-11.122243 -2.67757,1.441792 h 2.67757 z m -4.73724,-22.450419 -0.82387,-0.411915 -2.05968,3.913371 z M 305.15424,52.6353 c 0.68656,-2.334282 1.02984,-3.913372 1.02984,-4.737224 0,-3.295477 -0.82388,-5.835761 -2.4716,-7.620808 -1.51043,-1.785047 -4.39397,-4.737224 -8.65065,-8.856575 h -1.8537 c -2.05969,0 -3.36414,-0.205891 -3.91337,-0.617918 -0.41194,-0.274617 -0.6179,-1.30445 -0.6179,-3.089497 0,-1.922367 -0.27462,-2.608921 -0.82387,-2.059664 -0.41194,0.549235 -0.89252,1.23579 -1.44177,2.059664 -0.41194,0.961173 -0.89252,1.37311 -1.44177,1.23579 -0.41194,0 -0.61792,-1.579089 -0.61792,-4.737246 0,-1.37311 -1.51043,-2.952177 -4.53127,-4.737224 -3.02083,-1.647747 -6.38497,-3.295497 -10.09241,-4.943224 -3.70739,-1.51043 -7.20884,-2.746235 -10.50432,-3.707414 -3.29548,-0.9611792 -5.14919,-1.3044567 -5.56112,-1.0298325 h -2.05967 c -0.54923,0 -1.37311,-0.068637 -2.47162,-0.2058901 h -2.26562 c -1.51041,0 -2.67756,-0.1373199 -3.50146,-0.4119374 -0.68653,-0.1372526 -1.30443,-0.3432258 -1.85368,-0.6178948 -0.41194,-0.2746242 -0.89254,-0.5492506 -1.44177,-0.8238748 -0.41194,-0.1372526 -1.09852,-0.2058901 -2.05969,-0.2058901 -1.64773,0 -3.50144,0.3432774 -5.56112,1.0298322 -2.05967,0.8238748 -3.98203,1.2358122 -5.76708,1.2358122 -0.41194,0 -1.09849,-0.2059799 -2.05967,-0.6179173 -0.96117,-0.2746242 -1.71638,-0.4119374 -2.26564,-0.4119374 -1.51043,0 -2.12832,0.6179016 -1.85371,1.853707 0.41194,1.235805 0.6179,2.128331 0.6179,2.677582 0,1.647734 -0.20589,2.402942 -0.6179,2.265622 -0.41193,-0.137185 -0.96117,-0.686503 -1.64775,-1.647727 -0.54925,-0.823859 -1.23581,-1.716381 -2.05967,-2.67756 -0.68657,-0.961179 -1.30447,-1.4417693 -1.8537,-1.4417693 0,0.9611793 -0.41194,1.7850473 -1.23581,2.4716023 -0.68656,0.686554 -1.51042,1.167145 -2.47158,1.441769 -0.82389,0.411931 -1.64777,0.617895 -2.47163,0.617895 -0.82387,0 -1.30446,-0.205957 -1.44177,-0.617895 l -1.23581,1.64775 c -0.13725,0.274617 5e-5,0.549235 0.41194,0.823852 0.41194,0.274618 0.54926,0.411938 0.41194,0.411938 1.64775,0 2.33431,0.274617 2.05968,0.823874 -0.27462,0.686555 -0.41193,1.373108 -0.41193,2.059685 0,1.098492 0.34327,2.402942 1.02981,3.913372 0.82389,1.510429 1.71641,2.746219 2.67758,3.707391 1.0985,0.961173 2.12834,1.57909 3.08951,1.853707 1.0985,0.274618 1.92237,-0.274617 2.47163,-1.647727 l 7.20885,5.355141 0.41194,-7.002868 c 3.15816,0.137185 6.31631,0.20589 9.47447,0.20589 3.15818,0.137185 6.31636,0.274573 9.47451,0.411938 7.68945,0.411937 13.38787,2.265666 17.09528,5.561143 l 1.64775,2.67756 c 1.37311,-1.373133 2.12833,-2.059687 2.26562,-2.059687 0.13719,0 0.27458,0.0687 0.41194,0.20589 h 0.41194 c -0.13719,0 -0.20589,0.480597 -0.20589,1.441769 v 1.235813 c 0,0.274617 0.0687,0.892534 0.20589,1.853707 l 0.82387,2.883539 c 0.41194,0.961172 0.82386,1.785047 1.23579,2.471602 0.41194,0.686555 0.82388,0.823875 1.23582,0.411937 h 0.41193 c 0.96118,0 1.57909,1.098492 1.85371,3.295477 0.41194,2.196984 0.75522,3.844711 1.02983,4.943204 -0.13718,0.137185 -0.61785,1.029787 -1.44177,2.677582 -0.68655,1.785047 -1.57909,3.707414 -2.67758,5.767078 -0.96117,2.059687 -2.05966,3.913394 -3.29548,5.561121 -1.23581,1.785047 -2.4716,2.677582 -3.70741,2.677582 -1.51043,0 -2.9522,0.13741 -4.32531,0.411937 -1.23581,0.274618 -1.85371,1.167153 -1.85371,2.677582 0,0.549235 0.27462,1.579067 0.82388,3.089497 0.68655,1.647727 0.34328,2.471602 -1.02983,2.471602 -0.41194,0 -1.0985,-0.549235 -2.05969,-1.647727 -0.82385,-1.098492 -1.51041,-1.64775 -2.05966,-1.64775 h -0.6179 c -0.13718,0 -0.96113,0.13741 -2.4716,0.411938 -1.51043,0.411937 -3.22684,0.892534 -5.14921,1.441792 -1.78504,0.549235 -3.50143,1.09847 -5.14916,1.647727 -1.51043,0.549235 -2.47162,1.029832 -2.88356,1.44177 h -3.0895 c -1.09849,0 -1.991,0.137409 -2.67758,0.411937 -0.68653,0.274617 -1.37309,0.549235 -2.05966,0.823852 -0.68656,0.411938 -1.57909,0.755238 -2.67759,1.029855 -1.09849,0.274617 -2.60889,0.411937 -4.53126,0.411937 -1.92237,0 -3.84474,-0.0687 -5.76711,-0.20589 -1.92234,-0.137185 -3.63873,-0.20589 -5.14916,-0.20589 -7.00289,0 -12.08343,-1.304472 -15.24159,-3.913394 -3.15817,-2.608922 -4.73726,-7.895403 -4.73726,-15.859466 0,-2.334304 0.61791,-4.256671 1.85373,-5.767101 1.37312,-1.37311 2.05968,-3.432774 2.05968,-6.179016 0,-2.334282 -0.27463,-4.187989 -0.82388,-5.561121 -0.54925,-1.37311 -0.82388,-3.364114 -0.82388,-5.973036 0,-5.080524 -1.09849,-9.543153 -3.29547,-13.387887 1.2358,-2.883517 1.8537,-4.737224 1.8537,-5.561119 0,-1.37311 -0.54924,-2.402942 -1.64773,-3.089497 -0.96118,-0.686554 -1.44177,-1.92236 -1.44177,-3.707414 l 0.20596,-1.6477269 4.32531,-1.853707 c -2.05966,-2.7462351 -3.0895,-5.904403 -3.0895,-9.4745039 0,-1.2358032 0.13732,-3.089508 0.41194,-5.5611167 0.27461,-2.3342954 0.41192,-4.0506895 0.41192,-5.1491815 0,-2.196984 -0.1373,-4.050689 -0.41192,-5.561117 -0.27462,-1.510427 -0.41194,-3.226821 -0.41194,-5.149181 0,-0.686557 -0.34328,-1.922363 -1.02984,-3.707412 -0.68655,-1.785049 -1.02983,-3.226821 -1.02983,-4.325313 v -3.501444 c 0.1373,-1.510427 0.20596,-2.540264 0.20596,-3.08951 v -7.208855 c 0,-7.964067 -0.89253,-13.662495 -2.67758,-17.095285 0,0.961181 -0.41193,1.235806 -1.2358,0.82387 -0.82387,-0.411935 -1.64775,-1.098492 -2.47161,-2.059673 -0.82388,-0.961179 -1.51043,-1.991016 -2.05967,-3.08951 -0.54925,-0.961182 -0.68656,-1.579083 -0.41194,-1.853707 v -0.823868 h -3.29547 c -2.3343,0 -3.84473,0.411935 -4.53128,1.235803 -0.54925,0.823868 -1.30446,1.235803 -2.26564,1.235803 -0.96119,0 -1.92237,-0.480591 -2.88355,-1.44177 -0.96118,-0.823868 -2.33429,-1.235803 -4.11934,-1.235803 -0.68656,0 -1.57909,0.343278 -2.67758,1.029835 l -1.02983,8.032727 h -1.02984 c -0.27463,0 -0.48059,0.274622 -0.6179,0.823868 -0.1373,0.549246 -0.20596,0.961182 -0.20596,1.235806 0,1.785049 0.13732,2.677573 0.41194,2.677573 0.27462,0.137297 0.6179,-0.13732 1.02983,-0.823869 0.41194,-0.549246 0.82387,-1.30446 1.23581,-2.265639 0.41193,-0.823868 0.75521,-1.373115 1.02983,-1.647739 h 2.05968 c 0,-2.883541 0.27462,-4.188002 0.82387,-3.913378 0.68655,0.411935 1.51042,1.44177 2.4716,3.089508 0.96118,1.785049 1.85371,3.638756 2.67758,5.561117 0.96118,2.059673 1.78505,3.226821 2.47161,3.501445 l -0.82387,4.119345 h -9.68047 l 1.85371,-4.119345 c -0.82387,1.785049 -1.02984,3.226819 -0.6179,4.325311 0.41193,1.098492 1.09849,2.059674 2.05967,2.883544 0.96118,0.823868 1.99102,1.647738 3.08951,2.471606 1.2358,0.961182 2.19699,2.059674 2.88354,3.295477 l -0.82387,0.82387 -6.38498,-0.82387 c 0.68655,1.92236 2.54026,4.119345 5.56111,6.590953 0,-1.510427 0.75522,-2.26564 2.26564,-2.26564 1.0985,0 1.92236,0.480591 2.47161,1.44177 0,0.961181 -0.54925,1.785052 -1.64774,2.471609 -0.96118,0.686557 -2.05967,1.235803 -3.29547,1.647738 -1.23581,0.549246 -2.40296,0.961179 -3.50145,1.235803 -0.96118,0.274624 -1.44177,0.480591 -1.44177,0.617902 0,0.82387 1.44177,2.196987 4.32531,4.119347 -0.13729,0.274622 -0.41192,1.09849 -0.82386,2.471606 -0.41194,1.373117 -0.96119,3.158166 -1.64774,5.35515 l -0.20596,0.823869 c -0.27462,1.373116 0.54925,2.402953 2.47161,3.08951 1.92236,0.686557 2.88354,1.5790827 2.88354,2.6775749 0,0.961179 -0.34328,1.7850493 -1.02984,2.4716064 -0.68655,0.6865571 -1.51042,1.0298367 -2.4716,1.0298367 h -0.6179 c -0.27463,0 -0.68656,0.3432797 -1.23581,1.0298368 -0.41194,0.6865571 -0.68656,1.0298367 -0.82387,1.0298367 h -0.6179 l -0.41193,-0.2059574 c -0.1373,-0.1372975 -0.27462,-0.4119285 -0.41194,-0.8238681 l -0.20596,-0.4119351 -1.64774,1.2358032 c 1.51043,0.5492461 2.47161,1.1671499 2.88355,1.853707 0.54924,0.68655709 0.82387,1.51042739 0.82387,2.4716064 0,1.0984922 -0.41194,2.6089241 -1.23581,4.5312956 -0.68656,1.9223603 -1.02983,3.0895035 -1.02983,3.5014342 0,1.7850537 1.09849,3.2954837 3.29547,4.5312887 0,-2.05968 0.96118,-3.432796 2.88354,-4.1193513 1.92236,-0.6865549 3.77607,-1.3731097 5.56112,-2.0596645 l 2.05967,6.1790158 c 0,0.137253 -0.34328,0.20589 -1.02983,0.20589 h -1.44177 c -2.05968,0 -3.50145,-0.41193 -4.32532,-1.235789 l -2.67757,8.03272 -2.67758,-0.823874 c 0.54925,0.274617 0.96118,1.029832 1.23581,2.265644 0.27462,1.23579 0.41193,2.128324 0.41193,2.677582 0,0.686532 -0.0687,1.647727 -0.20596,2.883539 -0.13729,1.37311 -0.20595,2.402942 -0.20595,3.089497 v 1.853707 c 0.13729,0 0.27461,-0.274618 0.41193,-0.823852 0.1373,-0.411938 0.27462,-0.961195 0.41193,-1.64775 l 0.20596,-1.029832 c 0.27462,0 0.48059,0.411937 0.6179,1.23579 0.27462,0.961194 0.54925,1.991026 0.82387,3.089519 0.27463,1.098492 0.48059,2.265622 0.6179,3.501434 0.1373,1.235812 0.20596,2.128324 0.20596,2.677582 0,0.823875 0.27462,2.059687 0.82387,3.707414 0.68656,1.785047 1.02983,3.158179 1.02983,4.119351 0,0.274618 -0.0687,0.480598 -0.20595,0.617895 v 0.411915 c 0,0.411937 0.41193,0.755237 1.2358,1.029855 0.82387,0.274617 1.2358,0.617895 1.2358,1.029832 0,-0.411937 -0.13732,-0.06871 -0.41193,1.029832 l -3.70741,1.853707 0.6179,1.44177 c 0.41194,0.961195 0.82387,1.922389 1.2358,2.883562 0.82387,1.922367 1.23581,3.364136 1.23581,4.325309 0,0.961172 -0.13732,1.716364 -0.41194,2.265622 -0.13729,0.549235 -0.7552,1.167129 -1.8537,1.853707 l -6.38499,0.823852 c 0,0.823875 0.54925,1.991027 1.64774,3.501457 1.09849,1.510429 1.64774,2.471602 1.64774,2.883517 0,1.647749 0.20596,2.677581 0.6179,3.089519 0.54925,0.549257 0.82387,1.579089 0.82387,3.089541 0,0.411938 -0.34328,1.510408 -1.02984,3.295455 l -1.8537,1.441792 c 0.68655,1.510429 1.92236,2.265644 3.70741,2.265644 0.68656,0 1.64774,-0.13741 2.88354,-0.411937 1.2358,-0.274618 2.19698,-0.411938 2.88354,-0.411938 1.09849,0 2.67758,0.274618 4.73725,0.823875 2.19699,0.686533 4.53128,1.441747 7.00288,2.265645 2.60892,0.823852 5.21784,1.716387 7.82675,2.677582 2.60891,0.961172 4.94321,1.785024 7.00289,2.471579 1.64775,0 4.11936,0.274617 7.41483,0.823875 3.43279,0.549257 5.9044,0.823875 7.41482,0.823875 1.92237,0 4.53127,-0.549258 7.82675,-1.64775 1.09849,1.098492 2.40296,1.51043 3.91339,1.235812 1.51043,-0.137185 2.74622,-0.20589 3.7074,-0.20589 1.37313,0 2.3343,0.411937 2.88356,1.23579 l 6.17901,-0.823853 c 0.13719,0 9.74907,-2.059664 28.83542,-6.179016 0.96117,0 2.12832,-0.20589 3.50143,-0.617917 1.51043,-0.411937 2.67759,-0.892512 3.50144,-1.44177 0.82389,-0.411937 1.16717,-0.823874 1.02985,-1.235812 -0.13718,-0.411937 -1.16711,-0.617895 -3.08952,-0.617895 -1.37311,0 -1.5104,-0.549257 -0.41191,-1.647749 1.23581,-1.098492 2.81488,-2.196962 4.73722,-3.295454 1.92237,-1.098493 3.7761,-1.991027 5.56115,-2.677582 1.92234,-0.549258 2.88351,-0.343278 2.88351,0.617895 0,1.647749 0.20589,2.197007 0.61792,1.647749 0.54926,-0.411937 1.37311,-1.441792 2.4716,-3.089519 1.09849,-1.647727 2.47163,-3.638754 4.11935,-5.973036 1.78505,-2.334304 3.98203,-4.531289 6.59096,-6.590953 0.82387,-0.549258 1.57909,-1.44177 2.26562,-2.677582 0.68658,-1.235812 1.30447,-2.471602 1.85373,-3.707414 0.68655,-1.235813 1.23579,-2.402942 1.64773,-3.501435 0.54925,-0.961194 0.96119,-1.579112 1.23581,-1.853729 z m -149.12032,-106.279107 0.20596,0.617902 -0.20596,-0.411933 c 0,-0.137298 -0.0687,-0.411928 -0.20596,-0.82387 0,0.274624 0.0687,0.48059 0.20596,0.617901 z m -0.41194,57.0529386 v 1.4417697 h 0.61791 V 3.4091316 Z m 2.88355,-24.7160726 -0.82387,2.26564 h 0.82387 z m 0.82387,-20.596729 v 2.059672 h 0.82387 V -41.90367 Z M 260.66532,88.267649 h -5.14921 c 1.37311,-1.785047 2.40295,-2.677582 3.08952,-2.677582 0.27462,0 0.68656,0.13741 1.23579,0.411937 0.54926,0.274618 0.8239,1.029832 0.8239,2.265645 z m -15.24159,-9.680451 6.79691,-2.265644 v 1.853707 c -1.64773,0 -3.91337,0.411937 -6.79691,1.23579 -2.74624,0.823875 -4.59995,1.235812 -5.56112,1.235812 -0.96118,0 -1.99103,-0.13741 -3.08952,-0.411937 -1.0985,-0.274618 -0.34328,-0.411938 2.26564,-0.411938 1.78505,0 3.91339,-0.411937 6.385,-1.23579 z m 42.84119,-19.154965 -22.86238,5.767101 18.12514,-0.411937 c -1.23581,1.510407 -2.05967,2.059664 -2.4716,1.647727 -0.27462,-0.274617 -0.20589,-0.892535 0.20589,-1.853707 0.54923,-0.961172 1.37311,-2.059665 2.47162,-3.295477 1.23579,-1.098492 2.74622,-1.716409 4.53127,-1.853707 z m 10.50433,-8.238703 c -0.13719,0.549258 -0.54919,0.823875 -1.23579,0.823875 -1.51043,0 -2.33431,-0.823875 -2.47163,-2.471602 h 0.41194 c 0.13719,0 0.20589,-0.06871 0.20589,-0.20589 h 0.20589 c 1.23581,0 2.19699,0.617895 2.88354,1.853685 z m -19.97882,-2.677582 c -0.27462,0 -0.4806,0.06871 -0.61792,0.205891 h -0.61787 c -0.8239,0 -1.71641,-0.411938 -2.67758,-1.23579 -0.8239,-0.823875 -1.51045,-1.235812 -2.05969,-1.235812 l 1.64775,-1.64775 c -0.27464,0.274617 -0.13741,0.617917 0.41194,1.029855 0.68653,0.411937 1.09847,0.617895 1.23579,0.617895 h 2.05966 c 0.41194,0 0.61792,0.755214 0.61792,2.265622 z m -6.79693,-8.856575 v 1.853707 h -1.85371 z m 27.59962,0.20589 v 0.617873 l -0.41193,0.20589 h -0.61792 c -1.23579,0 -1.85369,-0.892513 -1.85369,-2.67756 0,-0.549257 0.27462,-1.029854 0.82388,-1.441792 1.51043,0 2.26564,0.892535 2.26564,2.677582 0,0.274617 -0.0687,0.480597 -0.20589,0.617917 z m -120.2849,-4.531289 h -1.85371 l 1.02985,-2.677582 z m 4.94322,-4.737246 h 3.0895 v 2.059664 h -0.41194 -0.20595 c 0,0.137186 -0.0687,0.205891 -0.20596,0.205891 -0.82388,0 -1.57909,-0.755215 -2.26564,-2.265645 z M 168.18599,2.5852636 h -2.05967 l 1.64774,-2.47160869 0.20595,0.8238703 c 0.1373,0.54924609 0.20596,1.09849219 0.20596,1.64773839 z"
         style="font-style:normal;font-variant:normal;font-weight:normal;font-stretch:normal;font-size:101.219px;line-height:1.25;font-family:'DS Eraser Cyr';-inkscape-font-specification:'DS Eraser Cyr';fill:#000000;fill-opacity:1;stroke:none;stroke-width:5.14916"
         id="path847"
         sodipodi:nodetypes="cccsscccccccccccccssssccccsscccccccsccccccccccsccscscccsccscscscccscscscsccccccsccsccsccccccccccsccssccscscccccscscscssccccsscsssssscssscsccccscssssscsscsscccscscsccsssccccccccccccsscccccsccccscsccssssscsccccccscscsccsscccsscsccsccssscscsscccssscccssssccsssccsccsccscccccsscscscsccscccccccccccccccccccccccccsscscccsssscccsccsccscscsccccsccccsssccccccccsscssccccccccccscccccssc" /><path
         d="m 434.28675,77.454444 v 1.647727 h 0.82385 q 0.20589,0 -0.20589,-0.823875 -0.41194,-0.617895 -0.61792,-0.823852 z M 383.20687,66.332201 v 0.823875 h 1.64773 v -0.823875 z m 73.94226,-30.895102 q -2.88356,0 -2.88356,-1.853685 0,-0.823897 0.41193,-2.265644 0.41194,-1.44177 0.41194,-2.059687 0,-1.647727 0,-2.883539 0.20589,-1.23579 0.20589,-3.089497 0,-1.029855 -0.41194,-2.677582 -0.41193,-1.64775 -1.64772,-2.883537 l -0.20589,-0.20589 h -0.82388 q -0.82385,0 -1.02983,0.82385 -0.20589,0.823875 -0.20589,1.647727 0,1.029855 0.82385,3.501457 1.02986,2.471624 1.02986,3.501434 0,1.853707 -2.88356,2.265644 -1.23579,-0.20589 -2.47161,-2.677582 -1.23581,-2.265644 -2.26562,-4.943203 -1.02985,-2.677582 -1.85373,-4.943202 -0.82385,-2.059687 -1.23579,-2.059687 -1.8537,0 -3.29547,1.44177 -1.85371,0 -3.2955,-2.265645 -1.44175,-2.059664 -2.67756,-4.1193287 -1.02983,-1.8537071 -1.64775,-2.4716244 -0.41192,-0.6178948 -0.41192,2.4716244 v 2.0596647 q 0,2.471602 -2.26564,2.471602 -1.64775,-3.707414 -3.29548,-5.7670789 -1.64775,-2.0596645 -4.11935,-3.2954767 -2.47162,-1.2358122 -6.385,-2.0596712 -3.91337,-0.6179016 -10.09238,-1.8537048 l -1.85371,-1.85370709 -3.0895,2.67757509 q -0.41193,-0.6179016 -3.50145,-2.26563994 -3.0895,-1.64773836 -5.76708,-2.88354156 -2.47163,-1.0298367 -2.88356,-1.2358032 -2.67756,0 -3.0895,0.8238681 -0.41194,0.8238703 -0.20589,1.853707 0.20589,1.23580321 0.20589,2.26563996 0.20589,1.02983674 -1.44177,1.44176964 h -2.67756 q -2.26564,0 -3.08954,0 -0.61787,0.2059575 -0.61787,0.4119352 0.20589,0.4119351 0.61787,1.0298457 0.41196,0.6178948 0.41196,1.6477271 0,0.6178949 -0.82388,2.0596645 -0.82387,1.4417921 -0.82387,2.2656445 0,1.0298326 1.64775,2.2656446 v 4.325309 q 2.26562,-1.23579 4.11933,-1.23579 1.8537,0 5.35516,1.44177 3.70742,1.441769 4.53127,1.441769 2.88356,0 4.73724,-3.501456 2.67759,0 3.9134,2.677582 1.44177,2.883559 2.4716,3.089494 l 5.76708,-2.26562 2.47162,7.414826 q 2.67758,-2.059687 3.91337,-1.029854 1.44177,1.029854 2.47161,2.677581 1.02983,1.647727 2.05968,2.677582 1.02981,1.23579 2.88354,-0.617917 l 1.64773,1.235812 q -0.41194,-0.411937 -2.26564,2.265622 -1.64773,2.677582 -1.64773,2.883562 l 0.20589,0.411937 v 0.617918 q 0,-0.205891 1.85371,-0.205891 1.85368,0 1.44174,0 3.29548,0 3.9134,2.265645 0.61789,2.471579 -1.44177,3.707414 l -2.05969,-0.823875 q 1.23581,0.411938 1.85371,1.441747 0.61791,1.029855 0.61791,1.647772 0,1.02981 -1.64775,3.089497 -1.44177,2.265645 -1.44177,3.913372 0,1.441792 0,1.647727 0.2059,0.20589 -0.82385,1.853729 h -1.44179 l -0.61792,-0.617917 q 0.20589,0.20589 0.20589,1.029832 0,1.029855 0,1.029855 0,1.853707 -1.23579,5.149161 -1.02985,3.295499 -1.02985,4.531289 h -0.6179 l -0.41193,-0.20589 q -0.6179,-0.20589 -2.26565,0.823897 -1.64772,1.23579 -3.50143,2.677582 -1.85371,1.647727 -3.70742,2.883517 -1.64775,1.44177 -2.88354,1.44177 -0.41193,0 -0.61791,-0.205891 h -0.61788 q -1.23581,0 -4.73726,1.029833 -3.29548,1.029854 -5.35517,1.029854 l -2.26562,2.059665 q -4.9432,-6.179016 -7.00289,-6.179016 -2.88354,0 -4.53129,2.883517 -1.44175,2.883562 -3.50143,2.883562 -1.44175,0 -3.08952,-1.235813 -1.44177,-1.235789 -3.0895,-1.235789 0,2.265622 -1.44177,2.059664 -1.23581,0 -3.08952,-1.441769 -1.85368,-1.441793 -4.11933,-4.119352 -2.26564,-2.471602 -4.11935,-5.149184 h -1.64773 q -0.41193,0 -0.61791,1.235812 -0.20589,1.44177 -0.20589,1.647728 0,1.853707 2.47162,5.767101 2.4716,3.913371 2.4716,5.973036 0,1.647727 0.41194,3.295476 0.41194,1.853707 2.05969,1.853707 0.82385,0 1.44177,-0.823874 0.82387,-0.617895 1.23579,-0.617895 0.20589,0 0.41193,0.20589 h 0.20589 q 1.23582,0.617917 1.44177,1.64775 0.41194,1.235812 0.61792,2.265644 0.20589,1.029832 0.6179,1.647727 0.41193,0.823875 2.05968,0.823875 0.61788,0 1.85371,-0.823875 1.23579,-0.617895 2.4716,-1.44177 1.44177,-0.617917 2.47158,-1.235789 1.02986,-0.411938 1.44179,0.20589 l 0.82386,1.441769 q 0.20589,0.205891 0.20589,2.059665 l -1.64773,1.64775 q -0.61792,0.617894 -1.23581,0.617894 l -0.6179,-0.20589 q 0.41194,0.20589 0.6179,0.823875 0.41191,0.823852 1.02983,0.823852 0.61792,0 2.05966,-1.235789 1.44177,-1.029855 1.85371,-1.235812 l 1.44179,3.707414 q 0.82385,0 4.73723,-1.44177 4.11935,-1.44177 4.94322,-2.677559 1.23581,1.235789 1.85371,2.059664 0.82387,1.029832 1.23579,1.029832 0.82387,0 1.85371,-0.20589 1.02985,-0.20589 7.41482,0.20589 1.23582,0 4.94321,-1.029832 l 0.8239,-0.823875 q -1.64775,-1.029854 -2.26565,-1.647727 -0.41194,-0.617917 -0.41194,-1.029855 V 90.01868 q 0,-0.20589 0,-0.411915 0.20589,0 0.20589,-0.20589 l 1.4418,-1.029832 q -0.41194,0.20589 1.02983,0.617895 1.44175,0.411937 1.44175,0.617917 2.88356,0 5.97305,-1.853707 3.29548,-1.64775 4.73725,-1.235812 0.41194,-1.64775 2.88356,-4.943204 2.67758,-3.089519 5.5611,-5.973081 3.08952,-2.677559 5.56112,-4.119352 2.4716,-1.441747 2.4716,0 v 1.647772 q 0,-0.823874 1.64775,-4.119351 1.85371,-3.295499 2.88354,-3.295499 2.4716,0 2.67758,-1.23579 0.20589,-1.029832 2.47161,-5.561099 0.61789,-1.029854 1.23581,-2.677581 0.61789,-1.64775 0.82387,-3.08952 0.41192,-1.441769 0,-2.471602 -0.41193,-1.029832 -1.85373,-1.029832 h -2.26562 q -1.02985,0 -1.02985,-2.265644 0.61791,0 1.8537,-1.44177 1.44177,-1.235812 2.47163,-1.235812 h 0.41194 q 0.20589,0 0.20589,0 0.20589,0.20589 0.41191,0.20589 l 1.85373,2.883562 q 1.44177,2.265644 1.23579,0.617895 0,-1.44177 0,-2.265645 0,-1.029832 1.64775,-3.913371 1.64773,-2.88354 1.64773,-4.119352 0,-1.853684 -0.82386,-2.677582 z m 8.23868,-8.238681 v -2.265644 q 0,-2.059665 -1.64773,-3.089497 h -0.61791 l -0.41194,-0.20589 q -1.85369,-1.029832 -2.88354,0.823875 -1.02983,1.853684 -1.02983,3.089519 0.61791,3.295454 3.91337,3.295454 1.64775,0 2.67758,-1.647727 z M 308.64672,7.0136231 V 9.485225 h 0.61787 V 7.0136231 Z m 46.75457,-11.5341684 q -1.23581,-2.0596713 -2.67758,-5.7670827 -1.44177,-3.707412 -1.44177,-8.238692 0,-1.853705 -0.61792,-4.943215 -0.61787,-2.883542 -1.44177,-6.179018 -0.82387,-3.295477 -1.44175,-6.179019 -0.61791,-2.883541 -0.61791,-4.325313 h -0.82388 l -0.82385,5.35515 q -2.26565,-1.029837 -2.26565,-4.119347 v -2.883541 q 0,-1.853705 -0.20589,-3.501444 -0.20589,-1.441772 2.26565,-1.441772 1.44177,0 3.50143,1.029837 2.05969,1.029837 2.05969,1.029837 0,-1.853705 0.61789,-5.561117 0.82388,-3.707412 0.82388,-5.561116 0,-1.853705 -1.85371,-3.913379 -1.64775,-2.059673 -4.11935,-3.707411 -2.4716,-1.647739 -5.35514,-2.677578 -2.67758,-1.029837 -4.73725,-1.029837 -2.4716,0 -3.91339,0.205958 -1.44175,0.411935 -3.29545,0.411935 -4.32534,0 -3.70742,1.235806 0.6179,1.441769 2.26565,3.089508 1.8537,1.647738 2.88353,2.883543 1.02984,1.44177 -2.67758,1.44177 -0.20589,-1.029837 -1.64775,-2.059674 -1.23579,-1.029834 -2.88351,-2.265639 -1.4418,-1.029837 -2.67759,-2.26564 -1.02985,-1.235806 -1.02985,-2.471609 l -0.82385,-0.205958 q -1.02986,-0.411932 -1.85371,1.647741 -0.82387,2.059674 -1.02985,2.471609 v 0.617901 q 0,0.205958 -0.20589,0.411935 0,0.205958 0,0.411933 l 0.20589,0.823871 q 0.41193,1.647738 0.61791,3.08951 0.20589,1.647736 -1.44177,2.883541 -1.64775,0 -2.26564,0 -0.41194,0 -0.41194,0.205958 0.20589,0.411935 0.41194,1.441772 0.41194,1.029837 0.41194,2.883541 0,0.205958 -0.41194,1.235804 -0.41194,1.029836 -1.02983,0.411935 h -0.41194 q -1.44177,0 -1.44177,2.26564 0,0.411935 0.20589,0.617901 v 0.617902 q 0,1.235803 3.08952,3.295477 3.0895,2.059673 3.0895,3.501443 0,2.471608 2.26564,4.325313 2.26564,2.059674 2.26564,3.08951 0,1.235804 -2.05966,2.677575 l 2.4716,1.647739 q -3.08952,1.029837 -3.08952,3.501443 0,0.823868 0.61792,2.677575 0.6179,2.059674 0.6179,3.089508 0,2.059674 -3.50146,3.707412 l 2.88356,12.1520699 2.4716,4.943233 2.05969,-2.2656579 1.64773,7.2088617 q 0.61791,2.2656443 -1.44177,2.4716023 -1.85373,0.20589 -2.26565,0.20589 -2.67758,0 -3.70741,-2.4716021 -0.20589,1.4417701 -0.41192,2.8835391 0,1.44177 0,2.059665 0,1.647749 -1.23583,2.471602 l 3.70741,0.823874 q -0.82385,1.441768 -0.82385,2.265643 0,1.647727 3.0895,3.501434 3.08952,2.059687 3.91337,2.883561 -0.61787,1.23579 -1.02983,2.265645 -0.20589,1.02981 -1.44175,1.441747 l -2.05969,-0.411937 -2.4716,10.298367 q 2.05966,0 2.88352,1.235812 0.82389,1.44177 0.82389,3.089497 0.20589,1.853707 -0.20589,3.089519 -0.20589,1.44177 -0.20589,1.44177 v 0.617917 l 2.88354,0.411915 q 1.02984,0 1.02984,1.235812 0,0.205891 -0.20589,0.411938 v 0.411915 q -0.20589,0.823875 -1.23579,0.823875 -1.85371,-0.411938 -0.82388,0.617917 1.23581,1.23579 2.67758,2.677559 1.44177,1.441792 1.85371,2.677582 0.41194,1.44177 -3.0895,1.44177 -1.44179,0 -2.67758,1.235812 -1.23581,1.23579 -2.05969,2.059664 1.64775,1.029833 2.05969,4.119352 0.41194,3.295477 0.82388,4.119351 v 9.062556 q 0,0.20589 1.02981,0.20589 1.02985,0 1.8537,0 2.47163,0 5.97306,-0.823852 3.70742,-0.617918 7.20887,-2.265645 3.50144,-1.441792 5.76708,-3.913371 2.4716,-2.265645 2.4716,-5.561144 0,-1.23579 -0.82387,-3.501434 -0.6179,-2.059665 -0.6179,-2.88354 0,-1.029832 1.44177,-4.943203 1.64773,-3.707414 1.64773,-8.032723 0,-4.943227 -2.05966,-9.88643 0,-3.08952 0.82387,-6.179016 0.82385,-3.08952 1.85371,-5.561144 1.02983,-2.471602 1.8537,-4.119329 0.82386,-1.64775 0.82386,-1.64775 0,-1.853707 -2.47158,-4.943224 -2.26565,-2.883517 -2.26565,-3.913349 0,-1.441792 1.44175,-2.8835616 1.64775,-1.4417696 1.64775,-3.2954767 0,-1.6477271 -2.05969,-4.3253134 -2.05966,-2.6775751 -2.05966,-3.5014431 0,-1.6477384 0.82387,-2.0596735 1.02984,-0.4119352 2.26565,-0.2059575 1.23579,0.4119351 2.4716,0.823868 1.23581,0.6179016 1.85371,0.6179016 0.82385,0 1.23581,-1.6477383 z M 312.14815,-55.188497 q -1.02983,-1.029836 -1.44177,-0.82387 -0.41193,0.411935 1.44177,0.82387 z m 59.31856,52.9335939 -1.23579,1.85370475 1.23579,-1.02983675 z m 23.89224,-0.8238703 v 0.8238703 h 1.02981 v -0.8238703 z m -25.9519,-10.5043316 h 2.88356 q 0,-1.647738 -0.61792,-1.853705 -0.41193,0 -0.61791,-0.205957 h -0.41192 q -0.61789,0 -0.82387,0.82387 -0.20589,1.029837 -0.41194,1.235803 z m 87.12416,-50.05005 q -8.23868,-5.149184 -11.74011,-5.149184 -1.85371,0 -5.35517,1.647736 -3.29547,1.647741 -6.59095,3.501448 -3.08952,1.853705 -5.35514,3.295477 -2.26565,1.441769 -1.85371,1.235803 -9.06258,5.767083 -11.94609,10.298363 -7.00292,4.119347 -15.85951,9.680464 -8.6506,5.767083 -14.62366,11.740134 0,0 -2.05966,1.647739 -1.85373,1.853705 -4.11935,3.913378 -2.05967,2.059674 -3.08952,3.707412 -1.02984,1.853705 0.82387,1.853705 0.41192,0 1.44177,-0.617902 1.23579,-0.411935 1.85371,-0.411935 l 0.41194,0.205957 q -0.20589,-0.205957 -0.61792,1.235804 -0.41194,1.441772 -0.41194,1.235803 0,0.205957 0.20589,0.411935 v 0.411935 q 0.20589,-0.82387 2.05967,-1.647738 1.8537,-0.82387 2.67758,-0.82387 1.64772,0 2.4716,0.82387 l 1.23581,2.26564 q 0.41194,0.617901 0.82388,0.617901 h 0.41193 q 0.82386,0 0.41192,-0.82387 -0.20589,-0.617902 -0.20589,-1.029834 0,-1.029837 1.02985,-2.265643 1.23579,-1.029834 2.05967,-1.235803 2.88356,1.647739 4.11935,1.235803 1.23579,-0.205957 1.64773,-1.441769 0.41193,-1.029837 0.82389,-2.26564 0.41194,-1.235803 1.64773,-1.235803 1.85371,1.853704 4.32531,0.411933 2.67758,-1.235804 5.35514,-3.913379 2.67758,-2.471606 5.14921,-5.149181 2.67756,-2.677575 4.73722,-3.707412 0.61792,0.205957 1.02986,1.441772 0.61789,1.235803 1.02981,2.26564 0.61791,1.029836 0.82387,1.441772 0.41194,0.617901 0.41194,-0.617904 v -1.853705 q 0,-2.059674 0.8239,-4.325313 0.82385,-2.26564 1.85368,-3.70741 1.02983,-1.235806 1.85371,-1.647738 0.82385,-0.205958 0.82385,1.441769 v 0.411935 q 0,0.205958 -0.20589,0.205958 0,0.205957 0,0.411935 v 2.059673 q 1.23581,-0.411935 4.11935,-2.883541 2.88354,-2.471609 4.32531,-2.471609 1.64775,0 1.64775,-0.411935 0,-0.205957 -0.6179,-0.823868 -0.61791,-0.617902 -1.44177,-1.441772 -0.61791,-0.823868 -0.61791,-1.853705 0,-1.441771 2.05968,-1.647738 2.05967,-0.205957 3.0895,-0.205957 1.85371,0 7.41483,-0.617904 2.88354,0 3.0895,2.059673 0.82387,-0.411935 1.44179,-0.823868 0.82385,-0.411935 1.64773,-0.82387 0.61789,0 1.44176,0.82387 0,-1.029837 -1.02983,-1.441772 -0.82387,-0.411935 -1.02983,-0.823868 h -0.41196 q -0.41194,0 -1.02981,0.411933 -0.61792,0.411935 -1.02985,0.411935 -0.82386,0 0.20589,-1.441769 1.23581,-1.441772 1.23581,-2.471609 0,-0.823868 -0.41194,-2.471606 -0.41194,-1.441772 -0.41194,-2.059674 0,-2.059673 2.26565,-3.08951 l 2.4716,2.677575 q 0.41191,0.617902 0.61789,-0.205958 0.41194,-0.82387 0.41194,-2.059673 0.20589,-1.029837 0.20589,-2.26564 0,-1.029837 0,-1.235803 z m 11.9461,14.005775 v -2.471606 q 0,0.823868 -1.44175,1.235803 -1.44177,0.411935 -1.64775,0.411935 -0.82388,0 -2.4716,-0.617904 -1.64773,-0.411933 -2.47163,-0.411933 -1.44174,0 -1.64772,0.205958 l -0.82388,5.35515 q 3.2955,-3.913379 8.65064,-3.913379 1.64773,0 1.85369,0.205958 z m -67.35128,-2.677575 -0.82388,-0.823868 -1.44177,1.029837 q 0.6179,-0.411936 1.44177,0.411932 0.82388,0.823871 0.82388,-0.617901 z m 64.26178,-4.737247 -0.82388,3.089508 0.82388,-0.823868 z m -0.82388,-2.677575 q 0,-1.029836 0.41194,-2.059673 0.41194,-1.029837 0.41194,-1.235803 0,-0.617902 -1.64773,-0.617902 -0.61791,0.205958 -0.61791,1.029837 0,0.205957 0.20589,0.411933 v 0.411935 q 0.20589,1.029837 1.23579,2.059673 z m -109.98654,-8.238694 -0.82385,1.029837 h 0.82385 z m 51.6978,156.535134 0.82387,4.531289 -1.02983,0.20589 q -2.88354,0.411938 -1.85371,-1.853684 1.23581,-2.059687 2.05967,-2.883562 z m 12.56401,-8.23868 -0.20589,0.20589 -0.20589,0.617917 1.02985,1.647727 q 0.41194,0.617918 -1.23581,1.647728 -1.44177,1.235812 -1.44177,1.235812 -0.20589,-0.617895 -1.02983,-2.265622 -0.61792,-1.647772 -0.61792,-1.853707 0,-0.823875 1.02986,-1.441792 1.23579,-0.411938 1.64772,-0.411938 1.02984,0 1.02984,0.617918 z m 5.14918,-5.767079 v 1.647727 l -0.82387,0.823875 z m 10.29837,-19.77286 v 3.707414 h -2.05966 l -0.20589,-1.235834 q -0.20589,-2.47158 2.26564,-2.47158 z m -103.60155,0.411915 -0.61791,0.617917 q -0.41192,0.411938 -1.02981,0 -0.41194,-0.20589 -0.41194,-1.235812 V 52.32642 l 1.64773,1.647749 q 0.41193,0.411938 0.41193,1.23579 z m 118.43121,-0.411915 q -1.64775,0.617895 -3.08952,1.029832 -1.44177,0.617895 -1.44177,2.677582 h -2.05967 q 0.20589,0 0.20589,-0.823897 0.20589,-0.823852 0.20589,-1.23579 0,-1.647727 -1.64775,-4.325309 -1.64775,-2.677582 -1.64775,-4.325309 0.41194,0.20589 1.4418,1.23579 1.02983,1.235812 2.26562,2.471602 1.44179,1.235835 2.88354,2.265644 1.64775,1.029855 2.88356,1.029855 z m -17.7132,-5.355164 v -2.059664 l 0.82388,0.411937 q 0.61789,0.411938 -0.20589,1.02981 -0.82388,0.617917 -0.6179,0.617917 z m 20.18478,-9.474492 v 2.059687 h -1.64773 z m -7.00287,0 V 41.2042 l -1.23581,-1.235812 z M 326.97779,36.672911 q 0.82387,0.823875 0.82387,2.883539 0,2.265645 -1.23581,1.64775 -1.23579,-0.41196 -2.4716,-2.059687 -1.23579,-1.44177 -1.85371,-3.295454 -0.61792,-1.853707 0.82388,-2.265645 h 0.41193 q 1.02984,0 1.85371,1.441748 0.82385,1.647749 1.64773,1.647749 z m 113.69396,-6.590953 h 1.02983 v 0.823875 q 0,0 -0.41194,-0.411938 -0.41194,-0.20589 -0.61789,-0.411937 z m -7.62081,-4.119329 v -0.411938 h 2.88356 q 0.82387,0 1.02983,0.823853 0.41192,0.823874 0.41192,1.235812 0,4.119351 -1.44175,4.119351 -0.8239,0 -2.05969,-1.853707 -1.02983,-1.853707 -1.02983,-3.295499 0,-0.411937 0.20589,-0.617872 z M 326.15391,18.341821 q -1.23579,2.471601 -4.11933,2.471601 -0.82387,-0.823874 -0.82387,-1.853707 0,-0.823872 1.85371,-2.059662 1.8537,-1.23579 1.8537,-2.677582 0.41194,0.617918 0.82386,1.029855 0.41193,0.617872 0.61791,1.029832 v 1.235812 q 0,0.205891 -0.20589,0.411915 0,0.205891 0,0.411936 z m 17.30126,-3.91337 h -2.4716 v -1.853707 h 1.64773 q 0.82387,0 0.82387,1.853707 z m 42.8412,-9.268535 q -0.6179,0.8238748 -2.26565,0.8238748 V 3.5121889 h 1.44177 q 0.41194,0 0.61792,0.8238524 0.20589,0.8238747 0.20589,0.8238747 z M 344.27905,-0.40119835 V 1.24654 h -1.64775 z m -19.36093,-6.59095335 0.20589,1.2358032 q 0.41194,1.4417719 -1.23583,3.0895102 -1.64773,1.8537048 -1.85369,2.05967125 l 1.23582,-4.73724635 q -3.9134,-0.2059575 -4.53129,-4.3253134 h 0.61789 q 0.20589,0 0.20589,-0.2059575 0,0 0.20589,0 1.23582,0 2.67759,1.4417696 1.64772,1.4417719 2.4716,1.4417719 z m 23.06834,-4.3253133 h -0.82387 v -3.913378 h 0.82387 z m -2.4716,-13.181907 -1.23581,-2.059671 h 2.05966 l 0.82388,1.235803 q -0.20589,-0.205957 -0.82388,0.205957 -0.61789,0.411936 -0.82385,0.617902 z m -21.42061,-10.298363 h 1.64773 q 0.20589,0 0.41193,1.647738 0.20589,1.647739 0.20589,2.059672 0,2.471608 -0.61791,2.471608 -0.61788,0.205958 -1.23579,-0.82387 -0.61792,-1.029835 -0.82388,-2.677573 -0.20589,-1.647738 0.41194,-2.677575 z m -2.88354,-11.122233 q 0,1.235803 -1.64775,2.883541 -1.44177,-0.82387 -1.44177,-2.677575 0,-0.823868 0.61792,-1.029837 2.26564,0 2.4716,0.823871 z m 10.29837,-3.707412 v 2.059673 q 0,0.205958 0.20589,0.411933 0.20589,0.411935 0.20589,0.617904 l -0.20589,0.823868 q -0.41194,2.059674 -2.05969,0.617902 -1.64775,-1.235803 -1.02983,-2.471607 l 1.23579,-1.235805 q 0.61792,-0.823868 1.64775,-0.823868 z m 12.76997,-1.647738 h 1.23581 v 1.647738 q 0,0.205957 -0.61792,-0.205958 -0.61789,-0.411935 -0.41194,-0.205957 v -0.411933 q 0,-0.205957 -0.20589,-0.411935 0,-0.205958 0,-0.411935 z m -23.89221,-0.617902 v 1.441772 l -1.23579,-1.235806 q -0.82388,-0.823868 -0.82388,-1.441769 h 1.23579 q 0.82388,0 0.82388,1.235803 z"
         style="font-style:normal;font-variant:normal;font-weight:normal;font-stretch:normal;font-size:101.219px;line-height:1.25;font-family:'DS Eraser Cyr';-inkscape-font-specification:'DS Eraser Cyr';fill:#000000;fill-opacity:1;stroke:none;stroke-width:5.14916"
         id="path849" /><path
         d="m 838.98534,25.540049 q 0,-0.265143 -0.26514,-1.060929 0,-0.530465 0,-1.060929 v 0.795696 q 0,1.06093 0.26514,1.326162 z m -1.59137,-10.874418 q 0,8.222095 1.59137,6.630746 1.5914,-1.591371 1.5914,-6.630746 0,-2.917528 -2.12186,-4.508888 -1.06091,1.856606 -1.06091,4.508888 z m 137.12363,-50.65882 q 0,-1.591375 -1.85661,-3.713211 -1.59139,-1.856608 -1.59139,-2.917523 l 1.32618,-1.326148 q -4.24371,0 -6.36553,-1.591376 -2.12186,-1.591376 -4.50888,-3.713211 -2.12186,-1.856608 -5.56985,-3.447984 -3.18275,-1.591378 -9.54828,-1.591378 -3.7132,0 -7.69164,1.326148 -0.26514,0 -2.6523,-0.265217 -2.38705,-0.265216 -5.30458,-0.53046 -2.91753,-0.265216 -5.83504,-0.795687 -2.65228,-0.265217 -3.71321,-0.795688 0.53047,-0.53046 0.79572,-0.795688 0.53042,-0.265217 0.79565,-0.53046 v -0.265217 q 0.26512,-0.265216 0.26512,-1.06092 -2.91753,-0.265216 -5.3046,-0.530455 -2.12181,0 -2.91753,-2.387068 -1.8566,5.835047 -4.77411,5.835047 -2.91754,0 -5.03937,-3.978439 -2.12182,-3.713212 -2.65228,-3.713212 -0.26512,0 -0.53046,0.265217 h -0.79568 q 0.26512,0 -0.79572,1.326148 -0.79567,1.591375 -1.32614,2.387063 l -4.77413,-4.774131 -2.65228,2.652296 q -0.26512,-1.326148 -2.6523,-2.387064 -2.38705,-0.795688 -5.30458,-2.121836 -2.6523,-1.06092 -5.03937,-2.387063 -2.38704,-1.326148 -2.91751,-3.447984 -4.50892,4.5089 -7.42643,4.5089 l -1.59137,-0.265217 q -1.06093,0 -1.85661,-1.591378 -0.79567,-1.326146 -1.32614,-1.326146 -0.53046,0 -2.65232,3.447982 -2.12181,3.447981 -4.5089,6.365505 -2.38705,2.917523 -4.24365,3.447983 -1.85661,0.53046 -1.85661,-5.304587 0.79568,-1.06092 1.59138,-1.06092 1.32616,0 1.59137,0.265217 l 1.59139,0.795687 q 0.53046,0 0.53046,-0.530457 0,0 -0.26512,-0.53046 0,-0.53046 -0.26514,-1.591376 l -9.01783,-4.508899 q -1.32611,7.956883 -5.56981,7.956883 -2.12183,0 -3.18272,-1.856608 -1.06093,-1.591376 -5.03939,-1.591376 0,0.265217 -0.26512,0.53046 v 0.530456 q 0,1.06092 2.12181,3.182755 2.12186,2.387064 3.97844,3.713212 1.85663,1.591375 2.12188,1.856605 0,1.856606 -2.65232,2.917524 l -1.85662,-2.121836 v 0.795688 q 0,0.795688 -1.06091,2.652296 -1.06093,1.856603 -1.06093,2.387063 0,2.652296 1.32618,1.856608 1.59135,-0.53046 3.18272,-1.591378 1.59138,-1.060918 2.91754,-1.326145 1.59137,-0.265217 1.59137,3.447979 0,1.59138 -1.32614,4.774131 -1.06089,3.447984 -1.06089,4.774132 0,2.917523 2.12182,5.039359 -3.97846,0 -8.22214,10.609176 2.65233,0 3.71321,-4.243671 1.06093,-3.978442 1.85661,-3.978442 3.18278,0 2.91753,2.652294 -0.26512,2.652295 -0.26512,5.039359 h 0.79567 q 0.26514,0 0.26514,-0.265217 0,0 0.26512,0 1.32614,0 2.12182,1.856606 1.06093,1.856606 1.32618,4.243669 0.53047,2.387064 0,4.243672 -0.53049,1.8566075 -2.12186,1.8566075 -0.26512,0 -0.53046,-0.2652165 h -0.53047 l -2.65227,-2.387063 q -0.7957,2.121833 -2.38707,3.1827508 -1.59135,1.3261479 -2.91753,1.8566057 -1.06089,0.7956878 -1.32614,0.7956878 0,0.2652188 1.8566,0.2652188 3.71325,0 5.3046,-0.7956923 1.8566,-0.5304556 1.8566,3.1827558 0,1.8566034 -1.32613,3.18275128 h 1.59134 V 2.4651108 q 0,1.5913869 -0.26512,3.4479903 -0.26514,1.8566057 0.26512,3.1827469 h 8.48735 q 0,0.2651312 0.53046,2.387068 0.79568,2.387066 1.06093,5.03935 0.26512,2.652321 -0.79567,2.652321 -0.79572,0 -2.65233,-1.060934 -1.8566,-0.795679 -2.38702,-0.795679 -1.06093,0 -2.12188,1.060893 l 1.85663,1.856604 q -0.53047,-0.53042 -1.32617,1.060929 -0.79569,1.856603 -0.79569,1.591349 l 0.26514,1.060929 1.59142,1.060929 q -0.79572,-0.530465 1.32611,-1.856604 2.38707,-1.326139 2.12184,-1.326139 1.59139,0 2.91753,3.182743 1.32614,3.447952 3.71321,3.447952 1.06093,0 2.91753,-1.060884 0.53046,1.060884 -0.26512,4.774136 -0.53046,3.978416 -6.36551,3.978416 -0.26512,0 -0.53046,-0.26512 h -0.53047 l -2.65227,-2.91751 q -1.32617,0.795652 -2.91754,5.039346 -1.59137,4.508904 -3.44797,5.835065 2.38707,0 3.97844,-3.182765 1.8566,-2.917532 3.71321,-2.917532 0.26514,0 0.53046,0.26512 h 0.79567 q 0,2.387068 -1.0609,5.56981 -0.7957,3.182742 -1.85661,6.365485 -1.06093,3.182764 -2.12183,5.569832 -0.79568,2.652301 -0.79568,3.447975 0,3.447997 1.32612,6.10032 1.32616,2.652277 4.5089,2.652277 l 1.06093,-1.060929 q -5.03937,-1.856603 -5.03937,-2.917532 v -0.530465 q 0,-0.26512 0,-0.530464 0.26512,0 0.26512,-0.26512 l 2.12184,-1.591394 q -0.26514,0.265143 0.53044,0.530465 0.79572,0.265142 1.32619,0.265142 h 1.8566 q 1.06093,0 1.59135,-1.326184 0.53046,-1.060884 0.53046,-1.326139 0,-0.26512 -2.38706,-5.835065 0,-2.121813 0.79571,-1.326116 1.06089,0.795652 2.12182,2.91751 1.06093,2.121858 1.8566,5.039391 1.06093,2.917487 1.06093,5.039345 0,6.365485 -0.26512,6.89595 0,0.795696 -1.59137,7.691668 1.32614,-0.530464 2.65228,-1.060929 1.32616,-0.530465 2.38706,-1.060929 1.32614,0 1.5914,0.795719 0.53046,1.060884 1.59137,2.121813 v 0.795697 q 0,1.326117 -0.7957,2.6523 -0.53046,1.326139 -0.53046,2.121814 0,2.917532 2.12183,0.795674 2.38707,-2.121813 3.71323,-2.121813 l 1.06091,0.26512 v 0.795719 l -0.26514,0.530465 q -0.53047,1.060884 2.12186,3.182719 2.91753,2.387091 2.91753,3.71323 l -0.26514,1.060929 1.0609,-0.265143 q 1.85663,-0.26512 1.85663,4.774114 0.53044,-0.530465 0.53044,-1.060929 0,-1.326139 -1.32612,-3.447952 -1.06095,-2.121858 -1.06095,-2.917533 0,-1.591393 1.85663,-2.652278 0.79567,1.591349 5.03934,3.713162 4.24368,2.387068 4.77414,5.304601 1.06091,-4.508881 1.06091,-16.709431 V 66.385324 q 0,-3.182742 -1.85661,-6.895949 -1.85658,-3.713207 -1.85658,-5.039346 0,-1.060929 0.79568,-2.917532 1.0609,-1.856626 1.0609,-2.917533 0,-1.326139 -0.53046,-2.652278 -0.26514,-1.060929 -0.26514,-3.447997 0,-1.591348 -1.85661,-5.304578 -1.8566,-3.713229 -1.8566,-4.508903 0,-2.387068 0.26514,-4.508904 0.53047,-2.121836 0.53047,-7.161204 0,-1.856581 1.06088,-5.835033 1.06093,-3.713209 1.06093,-5.8350609 0,-4.2436691 -2.65228,-6.8959536 l -5.83506,-4.5089104 q 4.77413,-1.3261479 4.77413,-5.5698193 0,-2.3870638 -1.06093,-5.3045888 -1.06093,-2.652294 -2.38706,-5.304587 -1.32614,-2.652296 -2.38707,-4.243672 -1.06089,-1.591375 -1.06089,-1.591375 0,-0.265217 0.26512,-0.530461 v -0.53046 l 4.50888,-0.530455 q 0,-7.691655 -5.56981,-13.261474 v -0.530458 q 0,-1.060918 1.32619,-2.387066 1.59135,-1.326145 1.59135,-1.856606 4.24367,1.856606 9.28301,2.387066 5.3046,0.795688 12.99627,1.856606 5.56979,0.795688 13.26148,1.856606 7.95688,1.060915 16.70943,1.856607 9.01781,1.060916 18.30083,1.591376 9.28306,0.795688 18.03561,0.795688 0.53047,-1.856608 3.44795,-2.121836 3.18279,0 3.71326,-0.53046 z m -140.04114,-19.361746 0.79568,1.060915 q -0.26515,-0.265216 -0.26515,-0.530458 0,0 -0.53042,-0.530457 z m 2.91751,59.1461578 V 0.87370376 q 0,-0.79569007 -1.59137,-0.79569007 -1.59137,0 -1.8566,-0.26521655 l 2.38707,6.63071016 q 0,0 0.53044,-1.3261434 0.53046,-1.0608954 0.53046,-1.3261411 z m 34.47984,33.4189112 h -1.06093 v -1.326139 h 1.06093 z m -5.83507,-20.953114 4.77414,2.917522 q -0.26512,0 -1.06091,2.387045 -0.53044,2.387068 -3.18276,2.387068 -1.59137,-3.447997 -1.59137,-5.304578 0,-1.326132 1.0609,-2.387057 z m 16.44422,-2.652313 v 2.121849 h -1.8566 v -4.243669 h 0.7957 q 0.53046,0 0.79569,0.795679 0.26515,1.060924 0.26515,1.326141 z M 871.34334,-2.0438198 q 0,1.32614567 0.26515,2.91752356 0.26512,1.59137794 -0.7957,1.59137794 0,-3.9784459 0.53046,-4.5089015 z m -16.17899,-1.5913801 -0.26514,1.0609201 q 0,1.3261479 -1.32616,1.85660567 -1.06091,0.5304578 -1.32614,0.5304578 -2.38707,0 -2.38707,-2.65229127 l 0.26512,-1.5913801 q 0,-0.2652166 1.32614,-1.3261434 1.5914,-1.0609201 1.32614,-0.7956923 2.38707,1.0609201 2.38707,2.9175235 z m 17.2399,-7.6916501 v 0.530455 l 0.26512,0.265217 q 0.53046,0.265219 -0.26512,1.0609176 -0.53044,1.0609178 -0.79567,1.3261479 l -0.7957,1.0609178 -1.06091,-4.7741293 q 2.12184,0 2.65228,0.530458 z m 8.22211,-1.326148 v 1.326148 q 0,0.530455 -0.79567,0.795687 -0.79568,0.265217 -0.79568,0.265217 -0.79572,0 -0.79572,-1.060916 0,-0.795687 -0.53044,-1.326147 v -0.265217 q 0,-0.530458 0.26512,-0.795688 v -0.265216 h 1.85663 q 0.79569,0 0.79569,1.326145 z m -20.15743,-10.609179 q -6.89597,6.895967 -8.22211,6.895967 -0.26514,-1.326147 -0.26514,-2.652295 0,-1.326148 0,-2.387064 0,-5.835049 1.8566,-5.835049 1.32614,0 3.18275,1.856608 2.12183,1.856606 3.44799,2.121833 z m 4.50891,-11.670092 H 862.856 l 1.06093,-2.917523 q 0.26514,-0.265217 0.53044,0.795688 0.53047,1.326148 0.53047,2.121835 z m 99.46102,-4.508903 1.8566,1.59138 q 0.26515,0.265216 -0.79567,1.326143 -1.06093,1.06092 -1.85661,-1.326143 l -0.26512,-0.53046 q 0,-0.795688 1.06091,-1.06092 z m -94.68689,-3.182751 h 2.65228 v 8.487342 q -2.12184,-1.06092 -2.38707,-3.447983 -0.26514,-2.387064 -0.26514,-5.039359 z m 88.58661,-1.326148 q 0,0.53046 0.26515,0.795687 v 0.530461 q 0,1.856603 -1.59142,2.387063 -1.59137,0.53046 -2.91749,0.53046 -1.32616,0 -2.6523,-0.795688 v -0.53046 l -0.26514,-0.265216 q -0.53046,-0.265217 0.79565,-1.856608 1.32619,-1.591376 1.5914,-1.856606 h 1.59139 q 2.12181,0 3.18274,1.060918 z m -25.19679,-2.121836 q -0.26514,1.060918 -2.38707,1.060918 v -4.243669 q 0,0.265216 1.06093,0.795687 1.32614,0.530458 1.32614,2.387064 z m 8.22211,-0.795688 -1.06089,-1.856606 h 2.12182 q -0.26512,0 -0.7957,0.795688 -0.26514,0.79569 -0.26514,1.060918 z m -79.83406,-14.852848 v -0.795687 l 5.03937,2.652295 q 0.26514,0.265217 -0.79568,0.530456 -0.79569,0.265217 -1.32616,0.265217 -3.18274,0 -3.18274,-2.121836 0,-0.265217 0.26512,-0.53046 z"
         style="font-style:normal;font-variant:normal;font-weight:normal;font-stretch:normal;font-size:101.219px;line-height:1.25;font-family:'DS Eraser Cyr';-inkscape-font-specification:'DS Eraser Cyr';fill:#000000;fill-opacity:1;stroke:none;stroke-width:6.63072"
         id="path853" /></g><text
       xml:space="preserve"
       style="font-style:normal;font-variant:normal;font-weight:bold;font-stretch:normal;font-size:53.2583px;line-height:1.25;font-family:sans-serif;-inkscape-font-specification:'sans-serif Bold';fill:#00ff00;fill-opacity:1;stroke:none;stroke-width:1.33146"
       x="137.38455"
       y="287.03732"
       id="text850"
       transform="scale(1,-1)"><tspan
         sodipodi:role="line"
         id="tspan848"
         x="137.38455"
         y="287.03732"
         style="font-style:normal;font-variant:normal;font-weight:bold;font-stretch:normal;font-family:Chilanka;-inkscape-font-specification:'Chilanka Bold';fill:#002b22;stroke-width:1.33146">Yet another Java Prolog engine</tspan></text></g></svg>
