<?xml version="1.0" encoding="UTF-8" standalone="no"?>
<svg
   xmlns:dc="http://purl.org/dc/elements/1.1/"
   xmlns:cc="http://creativecommons.org/ns#"
   xmlns:rdf="http://www.w3.org/1999/02/22-rdf-syntax-ns#"
   xmlns:svg="http://www.w3.org/2000/svg"
   xmlns="http://www.w3.org/2000/svg"
   xmlns:sodipodi="http://sodipodi.sourceforge.net/DTD/sodipodi-0.dtd"
   xmlns:inkscape="http://www.inkscape.org/namespaces/inkscape"
   id="svg3004"
   version="1.1"
   inkscape:version="1.0.1 (1.0.1+r74)"
   width="570"
   height="221.25"
   xml:space="preserve"
   sodipodi:docname="logo.svg"
   inkscape:export-filename="/home/igorm/Projects/Projects_PET/jprol/art/github_logo.png"
   inkscape:export-xdpi="172.25763"
   inkscape:export-ydpi="172.25763"><metadata
     id="metadata3010"><rdf:RDF><cc:Work
         rdf:about=""><dc:format>image/svg+xml</dc:format><dc:type
           rdf:resource="http://purl.org/dc/dcmitype/StillImage" /><dc:title /></cc:Work></rdf:RDF></metadata><defs
     id="defs3008" /><sodipodi:namedview
     pagecolor="#ffffff"
     bordercolor="#666666"
     borderopacity="1"
     objecttolerance="10"
     gridtolerance="10"
     guidetolerance="10"
     inkscape:pageopacity="0"
     inkscape:pageshadow="2"
     inkscape:window-width="1600"
     inkscape:window-height="830"
     id="namedview3006"
     showgrid="false"
     inkscape:zoom="0.90047083"
     inkscape:cx="202.74568"
     inkscape:cy="90.14634"
     inkscape:window-x="0"
     inkscape:window-y="33"
     inkscape:window-maximized="1"
     inkscape:current-layer="g3012"
     inkscape:document-rotation="0"
     showguides="true"
     inkscape:guide-bbox="true"><sodipodi:guide
       position="241.08,76.28125"
       orientation="0,-1"
       id="guide866" /></sodipodi:namedview><g
     id="g3012"
     inkscape:groupmode="layer"
     inkscape:label="ink_ext_XXXXXX"
     transform="matrix(1.25,0,0,-1.25,0,221.25)"><rect
       style="opacity:0.99464;fill:#000080;stroke:none;stroke-width:15.6639;stroke-linecap:round;stroke-linejoin:round"
       id="rect868"
       width="456.43478"
       height="177.32053"
       x="0"
       y="-177"
       transform="scale(1,-1)" /><path
       d="M 7.70508,9.64492 C 49.75,28.2859 81.6121,43.5969 127.684,66.6328 c 6.388,3.1942 13.061,4.9883 19.97,5.7582 -6.909,-0.7699 -13.582,-2.564 -19.97,-5.7582 C 81.6121,43.5969 49.75,28.2859 7.70508,9.64492 Z M 2.81016,20.6 C 44.6891,39.1672 76.393,54.4039 122.317,77.366 133.16,82.7871 144.3,84.9051 155.623,85.0031 144.3,84.9051 133.16,82.7871 122.317,77.366 76.393,54.4039 44.6891,39.1672 2.81016,20.6 Z M 262.687,54.1078 c 8.012,-0.0758 16.009,0.7024 23.941,2.7102 -7.932,-2.0078 -15.929,-2.786 -23.941,-2.7102 z m -12.023,0.7094 c -32.056,3.35 -63.949,17.3687 -92.476,18.0078 28.527,-0.6391 60.42,-14.6578 92.476,-18.0078 z m 47.808,5.984 c 3.927,1.6668 7.832,3.6879 11.709,6.1109 55.071,34.4189 90.42,68.3449 140.86,97.5199 -50.44,-29.175 -85.789,-63.101 -140.86,-97.5199 -3.877,-2.423 -7.782,-4.4441 -11.709,-6.1109 z m -39.094,5.2617 c -30.376,1.207 -61.89,15.466 -92.376,18.4133 30.486,-2.9473 62,-17.2063 92.376,-18.4133 z m 11.334,0.2062 c 11.272,0.9137 22.346,4.0918 33.108,10.818 46.025,28.7659 79.309,58.2979 120.249,84.8529 -40.94,-26.555 -74.224,-56.087 -120.249,-84.8529 -10.762,-6.7262 -21.836,-9.9043 -33.108,-10.818"
       style="fill:#000000;fill-opacity:1;fill-rule:evenodd;stroke:none;stroke-width:0.1"
       id="path3020" /><path
       d="m 260.80532,17.4949 -0.171,6.4789 0.901,4.2602 0.702,1.459 -5.705,3.1261 -0.848,-1.3812 -3.109,-3.0508 -5.548,-3.3449 -3.381,2.4758 1.514,6.298 1.972,3.884 1.056,1.225 -4.704,4.4961 -1.174,-1.1082 -3.791,-2.1457 -6.226,-1.7942 -2.625,3.2649 3.094,5.6891 2.909,3.2449 1.339,0.9082 -3.379,5.5621 -1.426,-0.7692 -4.215,-1.0929 -6.477,-0.1211 -1.689,3.832 4.461,4.702 3.645,2.3769 1.527,0.5301 -1.822,6.2469 -1.573,-0.375 -4.356,0.039 -6.287,1.5582 -0.644,4.1411 5.527,3.3847 4.141,1.35 1.612,0.118 -0.147,6.507 -1.617,0.0473 -4.197,1.1637 -5.67,3.132 0.455,4.1609 6.209,1.8403 4.347,0.2359 1.591,-0.302 1.542,6.32 -1.548,0.463 -3.753,2.211 -4.667,4.494 1.517,3.906 6.477,0.166 4.262,-0.895 1.452,-0.708 3.128,5.709 -1.378,0.848 -3.051,3.107 -3.345,5.549 2.473,3.379 6.297,-1.514 3.886,-1.97 1.225,-1.06 4.498,4.704 -1.108,1.177 -2.146,3.794 -1.797,6.222 3.268,2.623 5.691,-3.089 3.243,-2.91 0.907,-1.34 5.561,3.382 -0.769,1.424 -1.087,4.215 -0.125,6.476 3.836,1.69 4.698,-4.461 2.375,-3.648 0.534,-1.527 6.245,1.825 -0.375,1.571 0.041,4.36 1.556,6.286 4.141,0.64 3.383,-5.523 1.352,-4.143 0.118,-1.613 6.505,0.146 0.046,1.616 1.166,4.2 3.13,5.67 4.166,-0.452 1.838,-6.216 0.238,-4.348 -0.306,-1.591 6.32,-1.54 0.468,1.551 2.208,3.753 4.495,4.665 3.904,-1.514 0.171,-6.477 -0.902,-4.261 -0.705,-1.458 5.709,-3.128 0.848,1.38 3.107,3.05 5.548,3.348 3.38,-2.476 -1.512,-6.298 -1.974,-3.885 -1.056,-1.225 4.7,-4.496 1.178,1.111 3.795,2.147 6.222,1.794 2.625,-3.266 -3.091,-5.692 -2.912,-3.245 -1.338,-0.907 3.382,-5.559 1.421,0.769 4.217,1.087 6.478,0.125 1.691,-3.836 -4.461,-4.696 -3.65,-2.377 -1.529,-0.532 1.826,-6.248 1.574,0.376 4.358,-0.039 6.288,-1.5601 0.638,-4.1391 -5.523,-3.3816 -4.143,-1.3531 -1.613,-0.1199 0.146,-6.5071 1.615,-0.0441 4.199,-1.1668 5.674,-3.132 -0.454,-4.1641 -6.213,-1.8383 -4.351,-0.2348 -1.589,0.3051 -1.542,-6.3242 1.551,-0.4598 3.753,-2.2132 4.667,-4.4938 -1.514,-3.9039 -6.479,-0.1684 -4.263,0.8961 -1.456,0.7063 -3.124,-5.7063 1.376,-0.85 3.054,-3.1078 3.344,-5.548 -2.474,-3.377 -6.299,1.5117 -3.886,1.9723 -1.225,1.059 -4.496,-4.7063 1.111,-1.1757 2.147,-3.7879 1.794,-6.2262 -3.264,-2.625 -5.692,3.0922 -3.245,2.909 -0.907,1.3386 -5.564,-3.3808 0.772,-1.4219 1.089,-4.2172 0.123,-6.4808 -3.832,-1.6852 -4.701,4.459 -2.378,3.65 -0.528,1.5293 -6.25,-1.8274 0.378,-1.5707 -0.042,-4.3601 -1.559,-6.2852 -4.139,-0.641 -3.382,5.5242 -1.353,4.141 -0.12,1.6122 -6.505,-0.1473 -0.046,-1.6149 -1.163,-4.1992 -3.134,-5.6687 -4.164,0.4539 -1.838,6.2101 -0.237,4.3489 0.305,1.5898 -6.324,1.5442 -0.462,-1.5508 -2.21,-3.7532 -4.496,-4.6671 z m 3.728,31.6289 7.841,20.2012 -3.142,3.707 c -1.876,2.7051 -3.219,5.7508 -3.95,8.9629 l -0.616,4.8199 -20.212,7.8442 -0.231,-1.6922 c -1.927,-16.6539 5.389,-33.1906 19.017,-42.9637 l 1.291,-0.8793 z m 18.754,-7.2789 1.542,-0.2211 c 16.652,-1.9777 33.211,5.2922 43.024,18.8871 l 0.97,1.4039 -20.205,7.8411 -3.708,-3.1418 c -2.704,-1.8782 -5.752,-3.2211 -8.96,-3.952 l -4.824,-0.616 z m 2.627,34.561 c 6.213,-2.4118 13.213,0.6742 15.625,6.8863 2.411,6.2129 -0.674,13.2129 -6.887,15.625 -6.212,2.4117 -13.212,-0.6742 -15.624,-6.8871 -2.41,-6.2121 0.674,-13.2121 6.886,-15.6242 z m -13.972,29.1651 3.71,3.142 c 2.705,1.878 5.753,3.221 8.96,3.951 l 4.822,0.617 7.838,20.194 -1.547,0.226 c -16.654,1.974 -33.212,-5.296 -43.024,-18.886 l -0.968,-1.4 z m 64.16,-24.9011 0.228,1.686 c 1.928,16.6519 -5.392,33.1891 -19.016,42.9661 l -1.29,0.875 -7.839,-20.192 3.146,-3.711 c 1.875,-2.7042 3.218,-5.7491 3.948,-8.962 l 0.62,-4.8218 20.203,-7.8403"
       style="fill:#800000;fill-opacity:1;fill-rule:evenodd;stroke:none;stroke-width:0.1"
       id="path3024" /><path
       d="m 259.28832,19.6289 -0.171,6.4793 0.901,4.2598 0.702,1.459 -5.705,3.1261 -0.848,-1.3812 -3.109,-3.0508 -5.548,-3.3449 -3.381,2.4758 1.514,6.298 1.972,3.884 1.056,1.225 -4.704,4.4961 -1.174,-1.1082 -3.791,-2.1457 -6.226,-1.7942 -2.625,3.2649 3.094,5.689 2.909,3.245 1.339,0.9082 -3.379,5.5621 -1.426,-0.7692 -4.215,-1.0929 -6.477,-0.1211 -1.689,3.832 4.461,4.702 3.645,2.3769 1.527,0.5301 -1.822,6.2469 -1.573,-0.375 -4.356,0.039 -6.287,1.5582 -0.644,4.141 5.527,3.3848 4.141,1.35 1.612,0.118 -0.147,6.507 -1.617,0.0473 -4.197,1.1636 -5.67,3.1321 0.455,4.1611 6.209,1.84 4.347,0.236 1.591,-0.302 1.542,6.32 -1.548,0.463 -3.753,2.211 -4.667,4.494 1.517,3.906 6.477,0.166 4.262,-0.895 1.452,-0.708 3.128,5.709 -1.378,0.848 -3.051,3.107 -3.345,5.549 2.473,3.379 6.297,-1.514 3.886,-1.97 1.225,-1.06 4.498,4.704 -1.108,1.177 -2.146,3.794 -1.797,6.222 3.268,2.623 5.691,-3.089 3.243,-2.91 0.907,-1.34 5.561,3.382 -0.769,1.424 -1.087,4.215 -0.125,6.476 3.836,1.69 4.698,-4.461 2.375,-3.648 0.534,-1.527 6.245,1.825 -0.375,1.571 0.041,4.36 1.556,6.286 4.141,0.64 3.383,-5.523 1.352,-4.143 0.118,-1.613 6.505,0.146 0.046,1.616 1.166,4.2 3.13,5.67 4.166,-0.452 1.838,-6.216 0.238,-4.348 -0.306,-1.591 6.32,-1.54 0.468,1.551 2.208,3.753 4.495,4.665 3.904,-1.514 0.171,-6.477 -0.902,-4.261 -0.705,-1.458 5.709,-3.128 0.848,1.38 3.107,3.05 5.548,3.348 3.38,-2.476 -1.512,-6.298 -1.974,-3.885 -1.056,-1.225 4.7,-4.496 1.178,1.111 3.795,2.147 6.222,1.794 2.625,-3.266 -3.091,-5.692 -2.912,-3.245 -1.338,-0.907 3.382,-5.559 1.421,0.769 4.217,1.087 6.478,0.125 1.691,-3.836 -4.461,-4.696 -3.65,-2.377 -1.529,-0.532 1.826,-6.248 1.574,0.376 4.358,-0.039 6.288,-1.56 0.638,-4.1392 -5.523,-3.3816 -4.143,-1.3531 -1.613,-0.12 0.146,-6.507 1.615,-0.0441 4.199,-1.1668 5.674,-3.1321 -0.454,-4.164 -6.213,-1.8379 -4.351,-0.2352 -1.589,0.3051 -1.542,-6.3242 1.551,-0.4598 3.753,-2.2133 4.667,-4.4937 -1.514,-3.9039 -6.479,-0.1684 -4.263,0.8961 -1.456,0.7063 -3.124,-5.7063 1.376,-0.85 3.054,-3.1078 3.344,-5.548 -2.474,-3.377 -6.299,1.5117 -3.886,1.9723 -1.225,1.059 -4.496,-4.7063 1.111,-1.1758 2.147,-3.7878 1.794,-6.2262 -3.264,-2.625 -5.692,3.0922 -3.245,2.909 -0.907,1.3386 -5.564,-3.3808 0.772,-1.4219 1.089,-4.2172 0.123,-6.4809 -3.832,-1.6851 -4.701,4.459 -2.378,3.65 -0.528,1.5293 -6.25,-1.8274 0.378,-1.5707 -0.042,-4.3601 -1.559,-6.2852 -4.139,-0.6406 -3.382,5.5238 -1.353,4.141 -0.12,1.6121 -6.505,-0.1472 -0.046,-1.6149 -1.163,-4.1988 -3.134,-5.6691 -4.164,0.4539 -1.838,6.2101 -0.237,4.3489 0.305,1.5902 -6.324,1.5437 -0.462,-1.5507 -2.21,-3.7532 -4.496,-4.6672 z m 3.728,31.6289 7.841,20.2012 -3.142,3.707 c -1.876,2.7051 -3.219,5.7512 -3.95,8.9629 l -0.616,4.8199 -20.212,7.8442 -0.231,-1.6918 c -1.927,-16.6543 5.389,-33.191 19.017,-42.9641 l 1.291,-0.8793 z m 18.754,-7.2789 1.542,-0.2211 c 16.652,-1.9777 33.211,5.2922 43.024,18.8871 l 0.97,1.4039 -20.205,7.841 -3.708,-3.1418 c -2.704,-1.8781 -5.752,-3.221 -8.96,-3.9519 l -4.824,-0.616 z m 2.627,34.5609 c 6.213,-2.4117 13.213,0.6743 15.625,6.8864 2.411,6.2129 -0.674,13.2129 -6.887,15.6248 -6.212,2.412 -13.212,-0.674 -15.624,-6.8869 -2.41,-6.2121 0.674,-13.2121 6.886,-15.6243 z m -13.972,29.1652 3.71,3.142 c 2.705,1.878 5.753,3.221 8.96,3.951 l 4.822,0.617 7.838,20.194 -1.547,0.226 c -16.654,1.974 -33.212,-5.296 -43.024,-18.886 l -0.968,-1.4 z m 64.16,-24.9011 0.228,1.6859 c 1.928,16.6522 -5.392,33.1892 -19.016,42.9662 l -1.29,0.875 -7.839,-20.192 3.146,-3.711 c 1.875,-2.704 3.218,-5.7491 3.948,-8.962 l 0.62,-4.8219 20.203,-7.8402"
       style="fill:#ff0000;fill-opacity:1;fill-rule:evenodd;stroke:none;stroke-width:0.1"
       id="path3026" /><path
       d="m 50.519631,119.95004 q 0,-3.11897 -2.201625,-3.66937 0,3.66937 2.201625,3.66937 z M 65.747536,80.687725 q -0.917343,-0.275203 -0.917343,-1.100812 0,-0.458672 0.458672,-1.46775 0.550406,-1.009078 0.550406,-1.46775 0,0.183469 -1.100813,-0.275203 -1.009078,-0.366938 -1.100812,-0.642141 V 75.5506 q 0,-0.550406 1.009078,-1.009078 1.009078,-0.366937 1.009078,-1.009078 0,-0.550406 -0.09173,-0.64214 v -0.09173 q 0,-0.550406 -1.100813,-0.825609 -1.009078,-0.183469 -1.009078,-1.651219 0,-1.284281 0.550406,-2.385093 0.550407,-1.100813 0.917344,-2.018157 0.458672,-0.917343 0.275203,-1.742953 -0.09173,-0.825609 -1.46775,-1.651219 0,2.109891 -1.284281,2.018157 -1.192547,0 -1.651219,-0.642141 v -0.275203 q 0,-0.366937 0.550407,-0.917344 0.550406,-0.550407 0.550406,-0.82561 0,-1.009078 -0.733875,-0.275203 -0.733875,0.733875 -1.742953,0.733875 -0.550406,0 -0.917344,-0.550406 -0.275203,-0.550406 -1.46775,-0.550406 h -1.742953 q -7.247015,0 -16.420453,3.027235 -0.275204,0.183468 -0.642141,0.825609 -0.366938,0.733875 -0.825609,1.46775 -0.366938,0.825609 -0.917344,1.46775 -0.550406,0.642141 -1.192547,0.642141 -0.642141,0 -1.376016,-0.183469 -0.733874,-0.183469 -1.376015,-0.183469 -0.458672,0 -1.009078,0.458672 -0.550406,0.550406 -1.192547,1.192547 -0.642141,0.64214 -1.192547,1.100812 -0.550406,0.550406 -1.009078,0.550406 -1.834687,0 -2.385094,0.458672 -0.458671,0.550407 -0.550406,1.284282 0,0.733874 -0.183469,1.467749 -0.09173,0.733875 -1.192546,1.100813 -0.275204,-0.183469 -0.275204,-0.825609 V 74.17459 q 0,-0.550406 -0.550406,-0.458672 -0.550406,0.09173 -1.192547,0.458672 -0.64214,0.458672 -1.192546,0.917344 -0.550407,0.550406 -0.642141,0.825609 0.458672,2.293359 1.009078,3.669375 0.550406,1.376015 1.46775,3.485906 1.100812,0 2.568562,-1.009078 1.46775,-1.009078 2.752032,-2.201625 1.376015,-1.192547 2.385093,-2.201625 1.009078,-1.009078 1.376016,-1.100812 6.421406,-3.944578 9.63211,-3.944578 1.009078,0 2.293359,-0.642141 1.376016,-0.642141 2.660297,-1.009078 1.284281,-0.366938 2.10989,0 0.917344,0.458672 0.917344,2.568562 0,1.284281 -0.275203,1.834688 -0.275203,0.550406 0.642141,0.550406 1.559484,0 1.559484,2.201625 0,1.192547 -1.192547,3.210703 -1.100812,2.018156 -1.100812,2.9355 0,1.192547 -0.275203,1.834687 -0.183469,0.642141 -0.183469,1.926422 v 2.568562 q 0,0.366938 0.366937,0.550407 0.458672,0.183468 0.642141,0.183468 1.376015,0 1.376015,1.192547 0.09173,1.284283 -0.366937,2.935503 -0.458672,1.74296 -1.100813,3.57764 -0.550406,1.834693 -0.550406,3.027243 0,2.29336 0.82561,4.86192 -0.82561,0.36693 -0.82561,1.74295 v 1.83469 l 1.46775,-3.94458 q 2.201625,1.65122 2.201625,4.95366 v 1.10081 q 0,0.36694 -0.458672,0.45867 -0.458672,0.18347 -0.825609,0.18347 h -0.917344 q -0.09173,0 -0.550406,-0.64214 -0.366938,-0.64214 -0.458672,-0.73388 -0.64214,0.27521 -0.917344,1.37602 -0.275203,1.19255 -0.458671,1.37601 l 0.183468,0.45868 q 0,0 0.82561,-0.73387 0.825609,-0.73389 1.192546,-0.73389 h 0.275204 q 0.64214,0 1.100812,0.91735 0.458672,0.91734 0.733875,2.01816 0.366938,1.10081 0.458672,2.10989 0.183469,1.00908 0.183469,1.19255 0,1.55948 -0.82561,2.66029 l -0.366937,3.57764 q 0.733875,0 1.192547,-0.82561 0.458671,-0.73388 0.733875,-1.65121 0.366937,-0.82562 0.550406,-1.65123 0.275203,-0.73387 0.550406,-0.73387 1.009078,0 1.284281,0.36694 0.275203,0.36693 0.275203,0.91734 0,0.45867 -0.09173,1.00908 -0.09173,0.55041 -0.09173,1.19254 v 1.19255 q 0,0.64214 -0.183469,1.28429 -0.09173,0.64214 -0.825609,1.1008 l -2.201625,-1.19254 q -0.183469,-0.0917 -0.275203,0.2752 -0.09173,0.36694 -0.09173,0.55041 v 0.91735 q 0.550406,0.0917 1.284281,0.8256 0.733875,0.82561 1.46775,1.74296 0.82561,0.91734 1.559485,1.65121 0.733875,0.82561 1.376015,0.91735 0.458672,-0.45867 1.284281,-0.2752 0.82561,0.18346 1.192547,0.18346 0.550406,0 1.009078,-0.73387 l 1.46775,1.46775 q 2.018156,-3.94458 2.018156,-9.99905 0,-2.01815 -0.275203,-4.31151 -0.275203,-2.20162 -0.733875,-4.86193 0,-0.73387 0.458672,-2.66029 0.458672,-1.83469 0.458672,-2.75204 0,-2.47682 -1.926422,-4.31151 2.9355,-5.68753 2.9355,-12.200673 v -1.834692 q 0,-1.192547 -0.825609,-2.018156 -0.733875,-0.733875 -0.733875,-3.118969 1.834687,-0.183469 1.834687,-1.559484 0,-0.642141 -0.366937,-1.834688 -0.275203,-1.192547 -0.275203,-1.651218 0,0.09173 0.183468,-0.82561 z m -2.385093,49.353095 h -0.733875 v -0.36694 h 0.733875 z m -3.210703,-0.36694 v -1.19255 q 0,0.18347 0.183468,0.36695 0.183469,0.2752 0.183469,0.36693 0,0.36694 -0.366937,0.45867 z m -2.568563,-3.57764 v 0.45867 l -0.366937,0.36694 z m 2.843766,-3.57764 v 0.82561 h -0.642141 z m -0.733875,-5.32059 h 0.09173 q 0,0 -0.275203,0.2752 -0.183469,0.36694 -0.64214,0.36694 -0.275204,0 -0.82561,0.5504 -0.458672,0.55041 -0.825609,0.55041 l -0.550406,-1.74295 q -0.183469,-0.36694 0.275203,-0.55041 0.458672,-0.18347 0.550406,-0.18347 0.183469,0 0.917344,0.36694 0.733875,0.45867 1.100812,0.45867 0.09173,0 0.183469,-0.0917 z m -0.733875,-2.10989 h -0.366938 v -1.00908 h 0.366938 z m 3.027234,-4.21979 q -0.09173,-0.0917 -0.917344,-0.0917 -1.284281,0 -3.852843,1.46774 l 0.825609,-2.20163 q 1.651219,-0.45866 2.018156,-0.45866 0.733875,0 1.192547,0.18347 0.458672,0.27519 0.733875,1.1008 z m -10.090781,-7.06354 q -0.275203,0.36694 -0.64214,0.36694 -1.100813,0 -1.100813,-1.19255 l 1.376016,-0.73387 q 0.458672,-0.27521 0.366937,0.64214 0,0.91734 0,0.91734 z m 5.320594,0 0.366937,-2.9355 h 0.82561 v 0.18347 q 0,0.0917 0,0.0917 0.09173,0.0917 0.09173,0.18347 0,0.55041 -0.642141,1.46775 -0.64214,0.91734 -0.64214,1.00908 z m 4.953656,-3.39417 h -2.385094 q -0.09173,0 -0.183468,-0.642143 -0.09173,-0.55041 -0.275204,-1.28428 -0.183468,-0.64214 -0.458671,-1.28428 -0.275204,-0.55041 -0.82561,-0.55041 l 0.550406,-0.73388 q 0.642141,0 1.192547,0.64214 0.642141,0.64215 1.100813,1.46775 0.458672,0.82562 0.733875,1.55949 0.366937,0.733873 0.550406,0.825613 z m 1.559484,-8.898239 q 0,1.284281 -0.275203,1.651219 -0.183469,0.366937 -0.458672,0.275207 -0.275203,-0.0917 -0.550406,-0.55041 -0.183469,-0.458672 -0.183469,-0.82561 0,-0.366937 0.366938,-0.733875 0.917343,0 1.100812,0.183469 z m -7.063546,-3.761109 v 1.926422 q 0,1.100812 -0.366938,1.100812 -0.366937,0.09173 -0.64214,-0.458672 -0.183469,-0.458672 -0.09173,-1.284281 0.183469,-0.733875 1.100813,-1.284281 z m -5.412328,-3.944578 q -0.275203,3.761109 -2.109891,4.586718 0.366938,-1.926421 0.733875,-3.118968 0.366938,-1.100813 1.376016,-1.46775 z m 14.310562,0 q -0.642141,0 -1.284282,0.550406 -0.550406,0.642141 -1.009078,1.376016 -0.458671,0.733875 -0.825609,1.284281 -0.275203,0.642141 -0.458672,0.733875 l -0.825609,-3.485906 q 0.64214,0 1.742953,-0.550406 1.192547,-0.458672 1.559484,-0.458672 0.642141,0 1.100813,0.550406 z m -10.641187,1.376015 q -0.458672,0.458672 -0.82561,0.458672 l 0.366938,-1.192547 q 0,0 0.183468,0.275204 0.275204,0.366937 0.275204,0.458671 z m 5.228859,-2.10989 -1.559485,-2.385094 0.366938,-0.183468 1.46775,2.385093 z M 23.457989,78.119163 v -1.376016 l 0.366938,0.366938 q 0.366937,0.366937 -0.09173,0.64214 -0.366937,0.366938 -0.275203,0.366938 z m 35.501204,-3.577641 h -0.366938 v -0.825609 h 0.366938 z m -6.237937,-2.843765 q 0,0.275203 -0.366938,0.825609 -0.275203,0.550406 -0.458672,0.917344 l 0.458672,-2.385094 q 0,0 0.183469,0.183469 0.183469,0.275203 0.183469,0.458672 z M 31.989287,71.330819 h 0.183468 q 0,0 -0.64214,0.550407 -0.642141,0.550406 -1.009078,0.550406 l -0.366938,-0.09173 q 0.550406,0.09173 1.009078,-0.458671 0.550407,-0.550407 0.82561,-0.550407 z m 30.180609,-0.733875 h -0.642141 v -0.550406 z"
       style="font-style:normal;font-variant:normal;font-weight:normal;font-stretch:normal;font-size:101.219px;line-height:1.25;font-family:'DS Eraser Cyr';-inkscape-font-specification:'DS Eraser Cyr';fill:#ffffff;fill-opacity:1;stroke:none;stroke-width:2.29335"
       id="path845" /><path
       d="m 126.55275,131.18742 c 0,-0.30578 -0.12231,-0.61156 -0.36694,-0.91734 -0.18347,-0.24463 -0.36694,-0.18347 -0.55041,0.18347 l -0.36694,0.36694 c -0.24462,0.24462 -0.0917,0.36693 0.45868,0.36693 z m 6.78834,-7.06354 -2.10989,1.74295 2.10989,-0.36694 z m 1.65122,-0.64214 v 0.64214 h 0.45867 c -0.0611,0 -0.18344,-0.12231 -0.36693,-0.36694 -0.12231,-0.24463 -0.15288,-0.33636 -0.0917,-0.2752 z m 2.56856,-2.9355 -0.0917,-0.55041 c -0.0611,0.18347 -0.33634,0.51982 -0.82561,1.00907 -0.48925,0.48925 -0.73388,0.91735 -0.73388,1.28429 v 0.18347 c 0,0.12231 0.2752,-0.12232 0.82561,-0.73388 0.55041,-0.61157 0.82561,-1.00908 0.82561,-1.19254 z m -62.012435,-2.75203 -2.018156,-1.28429 c -0.244625,0.42809 -0.366938,0.82561 -0.366938,1.19255 0,0.30578 0.183469,0.64214 0.550406,1.00908 l 0.917344,0.91734 c -0.06115,-0.0611 0.06116,-0.33634 0.366937,-0.82561 0.366938,-0.48925 0.550407,-0.82561 0.550407,-1.00907 z m -1.651219,-2.1099 v -2.56856 h -0.825609 c 0.06115,0.48925 0.09173,0.9785 0.09173,1.46775 0.06115,0.55041 0.305778,0.91734 0.733875,1.10081 z m 0.366937,-4.95366 -1.192546,0.64215 h 1.192546 z m -2.10989,-9.99904 -0.366938,-0.18346 -0.917344,1.74295 z m 65.314877,14.58576 c 0.30578,-1.03965 0.45867,-1.74295 0.45867,-2.10988 0,-1.46775 -0.36694,-2.59915 -1.10081,-3.39418 -0.67272,-0.79503 -1.957,-2.10988 -3.85285,-3.94457 h -0.82561 c -0.91735,0 -1.49833,-0.0917 -1.74295,-0.27521 -0.18347,-0.12231 -0.2752,-0.58098 -0.2752,-1.37601 0,-0.85619 -0.12231,-1.16197 -0.36694,-0.91734 -0.18347,0.24462 -0.39751,0.5504 -0.64214,0.91734 -0.18347,0.42809 -0.39751,0.61156 -0.64214,0.5504 -0.18347,0 -0.27521,-0.7033 -0.27521,-2.10989 0,-0.61156 -0.67272,-1.31485 -2.01815,-2.10988 -1.34543,-0.733879 -2.84376,-1.467759 -4.49499,-2.201629 -1.65121,-0.67272 -3.2107,-1.223127 -4.67845,-1.65122 -1.46775,-0.428093 -2.29336,-0.580983 -2.47683,-0.45867 h -0.91734 c -0.24462,0 -0.61156,-0.03057 -1.10082,-0.0917 h -1.00907 c -0.67271,0 -1.19254,-0.06116 -1.55949,-0.18347 -0.30577,-0.06113 -0.58097,-0.152867 -0.8256,-0.2752 -0.18347,-0.122313 -0.39752,-0.244627 -0.64214,-0.36694 -0.18347,-0.06113 -0.48926,-0.0917 -0.91735,-0.0917 -0.73387,0 -1.55948,0.15289 -2.47683,0.45867 -0.91734,0.36694 -1.77353,0.55041 -2.56856,0.55041 -0.18347,0 -0.48925,-0.09174 -0.91734,-0.27521 -0.42809,-0.122313 -0.76445,-0.18347 -1.00908,-0.18347 -0.67272,0 -0.94792,0.275203 -0.82561,0.82561 0.18347,0.550407 0.2752,0.947923 0.2752,1.19255 0,0.733873 -0.0917,1.07023 -0.2752,1.00907 -0.18347,-0.0611 -0.42809,-0.305757 -0.73388,-0.73387 -0.24463,-0.366933 -0.55041,-0.764447 -0.917342,-1.19254 -0.30579,-0.428093 -0.58099,-0.64214 -0.82561,-0.64214 0,0.428093 -0.18347,0.79503 -0.550409,1.10081 -0.30578,0.30578 -0.672713,0.519827 -1.1008,0.64214 -0.366947,0.183467 -0.733887,0.2752 -1.10082,0.2752 -0.36694,0 -0.580987,-0.09173 -0.64214,-0.2752 l -0.55041,0.73388 c -0.06113,0.12231 2.3e-5,0.24462 0.18347,0.36693 0.183473,0.12231 0.24463,0.18347 0.18347,0.18347 0.73388,0 1.039663,0.12231 0.91735,0.36694 -0.122313,0.30578 -0.18347,0.611559 -0.18347,0.917349 0,0.48925 0.152887,1.07023 0.45866,1.74295 0.366947,0.67272 0.764463,1.22312 1.19255,1.65121 0.489253,0.42809 0.947929,0.7033 1.376019,0.82561 0.48925,0.12231 0.85619,-0.12231 1.100822,-0.73387 l 3.2107,2.38509 0.18347,-3.11896 c 1.40659,0.0611 2.81318,0.0917 4.21977,0.0917 1.4066,0.0611 2.8132,0.12229 4.21979,0.18347 3.42475,0.18347 5.96273,1.00909 7.61395,2.47684 l 0.73388,1.19254 c 0.61156,-0.61157 0.94792,-0.91735 1.00907,-0.91735 0.0611,0 0.12229,0.0306 0.18347,0.0917 h 0.18347 c -0.0611,0 -0.0917,0.21405 -0.0917,0.64214 v 0.55041 c 0,0.12231 0.0306,0.39752 0.0917,0.82561 l 0.36694,1.28428 c 0.18347,0.42809 0.36693,0.79503 0.5504,1.10081 0.18347,0.30578 0.36694,0.36694 0.55041,0.18347 h 0.18347 c 0.42809,0 0.7033,0.48925 0.82561,1.46775 0.18347,0.9785 0.33636,1.71237 0.45867,2.20162 -0.0611,0.0611 -0.27518,0.45865 -0.64214,1.19255 -0.30578,0.79503 -0.7033,1.65122 -1.19255,2.56856 -0.42809,0.91735 -0.91734,1.74296 -1.46775,2.47683 -0.55041,0.79503 -1.10081,1.19255 -1.65122,1.19255 -0.67272,0 -1.31486,0.0612 -1.92642,0.18347 -0.55041,0.12231 -0.82561,0.51983 -0.82561,1.19255 0,0.24462 0.12231,0.70329 0.36694,1.37601 0.30578,0.73387 0.15289,1.10081 -0.45867,1.10081 -0.18347,0 -0.48925,-0.24462 -0.91735,-0.73387 -0.36693,-0.48925 -0.67271,-0.73388 -0.91734,-0.73388 h -0.2752 c -0.0611,0 -0.42807,0.0612 -1.10081,0.18347 -0.67272,0.18347 -1.43718,0.39752 -2.29337,0.64215 -0.79503,0.24462 -1.55948,0.48924 -2.29335,0.73387 -0.67272,0.24462 -1.10082,0.45867 -1.28429,0.64214 h -1.37601 c -0.48925,0 -0.88676,0.0612 -1.19255,0.18347 -0.30577,0.12231 -0.61155,0.24462 -0.91734,0.36693 -0.30578,0.18347 -0.7033,0.33637 -1.19255,0.45868 -0.48925,0.12231 -1.16196,0.18347 -2.01815,0.18347 -0.85619,0 -1.712382,-0.0306 -2.568572,-0.0917 -0.856179,-0.0611 -1.620629,-0.0917 -2.293349,-0.0917 -3.118973,0 -5.381757,-0.58099 -6.78835,-1.74296 -1.406596,-1.16197 -2.109894,-3.51648 -2.109894,-7.06354 0,-1.03966 0.275206,-1.89585 0.825618,-2.56857 0.611564,-0.61156 0.917346,-1.5289 0.917346,-2.75203 0,-1.03965 -0.122313,-1.86526 -0.36694,-2.47683 -0.24463,-0.61156 -0.366945,-1.49832 -0.366945,-2.66029 0,-2.26278 -0.489249,-4.25036 -1.467746,-5.96274 0.550406,-1.28427 0.825609,-2.10988 0.825609,-2.476829 0,-0.61156 -0.244625,-1.07023 -0.733874,-1.37601 -0.428092,-0.30578 -0.642138,-0.856187 -0.642138,-1.65122 l 0.09173,-0.73387 1.926422,-0.82561 c -0.917341,-1.223127 -1.376011,-2.629722 -1.376011,-4.219785 0,-0.550406 0.06116,-1.376015 0.183471,-2.476828 0.122307,-1.039656 0.183461,-1.804109 0.183461,-2.293359 0,-0.9785 -0.06115,-1.804109 -0.183461,-2.476828 -0.122314,-0.672719 -0.183471,-1.437172 -0.183471,-2.293359 0,-0.305781 -0.152892,-0.856188 -0.458676,-1.651219 -0.305778,-0.795031 -0.458667,-1.437172 -0.458667,-1.926422 v -1.559484 c 0.06115,-0.672719 0.09173,-1.131391 0.09173,-1.376016 v -3.210703 c 0,-3.547062 -0.397517,-6.085046 -1.19255,-7.613953 0,0.428094 -0.183467,0.550407 -0.550402,0.366938 -0.366941,-0.183469 -0.73388,-0.48925 -1.100815,-0.917344 -0.366941,-0.428093 -0.672722,-0.886765 -0.917343,-1.376016 -0.244626,-0.428094 -0.305783,-0.703297 -0.183471,-0.82561 v -0.366937 h -1.467749 c -1.039656,0 -1.712375,0.183469 -2.018156,0.550406 -0.244625,0.366937 -0.580984,0.550406 -1.009078,0.550406 -0.428094,0 -0.856188,-0.214047 -1.284281,-0.64214 -0.428094,-0.366937 -1.039657,-0.550406 -1.834688,-0.550406 -0.305781,0 -0.703297,0.15289 -1.192547,0.458671 l -0.458672,3.577642 h -0.458672 c -0.122313,0 -0.214047,0.122312 -0.275203,0.366937 -0.06115,0.244625 -0.09173,0.428094 -0.09173,0.550407 0,0.795031 0.06116,1.192546 0.183469,1.192546 0.122313,0.06115 0.275203,-0.06116 0.458672,-0.366937 0.183469,-0.244625 0.366937,-0.580985 0.550406,-1.009078 0.183469,-0.366937 0.33636,-0.611562 0.458673,-0.733875 h 0.917344 c 0,-1.284281 0.122312,-1.865266 0.366937,-1.742953 0.305781,0.183469 0.672719,0.64214 1.100813,1.376015 0.428093,0.795031 0.825609,1.620641 1.192546,2.476828 0.428094,0.917344 0.795032,1.437172 1.100813,1.559485 l -0.366938,1.834687 h -4.311515 l 0.825609,-1.834687 c -0.366937,0.795031 -0.458672,1.437171 -0.275203,1.926421 0.183469,0.48925 0.48925,0.917344 0.917344,1.284282 0.428093,0.366937 0.886765,0.733875 1.376015,1.100812 0.550407,0.428094 0.978501,0.917344 1.284282,1.46775 l -0.366938,0.366938 -2.843765,-0.366938 c 0.305781,0.856187 1.131391,1.834687 2.476828,2.9355 0,-0.672719 0.336359,-1.009078 1.009078,-1.009078 0.48925,0 0.856187,0.214047 1.100812,0.64214 0,0.428094 -0.244625,0.795032 -0.733875,1.100813 -0.428093,0.305781 -0.917343,0.550406 -1.46775,0.733875 -0.550406,0.244625 -1.070234,0.428093 -1.559484,0.550406 -0.428094,0.122313 -0.642141,0.214047 -0.642141,0.275203 0,0.366938 0.642141,0.978501 1.926422,1.834688 -0.06115,0.122312 -0.183466,0.489249 -0.366937,1.100812 -0.183469,0.611563 -0.428094,1.406594 -0.733875,2.385094 l -0.09173,0.366937 c -0.122312,0.611563 0.244626,1.070235 1.100813,1.376016 0.856187,0.305781 1.284281,0.703297 1.284281,1.192547 0,0.428093 -0.152891,0.795031 -0.458672,1.100812 -0.305781,0.305781 -0.672719,0.458672 -1.100812,0.458672 h -0.275203 c -0.122313,0 -0.305782,0.152891 -0.550407,0.458672 -0.183469,0.305781 -0.305781,0.458672 -0.366937,0.458672 h -0.275203 l -0.183469,-0.09173 c -0.06115,-0.06115 -0.12231,-0.183466 -0.183469,-0.366937 l -0.09173,-0.183469 -0.733875,0.550406 c 0.672719,0.244625 1.100812,0.519829 1.284281,0.82561 0.244625,0.305781 0.366938,0.672719 0.366938,1.100812 0,0.48925 -0.183469,1.161971 -0.550407,2.018163 -0.305781,0.856187 -0.458671,1.376013 -0.458671,1.55948 0,0.795033 0.48925,1.467753 1.467749,2.01816 0,-0.917347 0.428094,-1.52891 1.284282,-1.83469 0.856187,-0.30578 1.681797,-0.61156 2.476828,-0.91734 l 0.917343,2.75203 c 0,0.06113 -0.15289,0.0917 -0.458671,0.0917 h -0.642141 c -0.917344,0 -1.559485,-0.183467 -1.926422,-0.5504 l -1.192547,3.577639 -1.192546,-0.36694 c 0.244625,0.12231 0.428093,0.45867 0.550406,1.00908 0.122312,0.5504 0.183468,0.94792 0.183468,1.19255 0,0.30577 -0.03058,0.73387 -0.09173,1.28428 -0.06115,0.61156 -0.09173,1.07023 -0.09173,1.37601 v 0.82561 c 0.06115,0 0.122309,-0.12231 0.183468,-0.36693 0.06115,-0.18347 0.12231,-0.4281 0.183469,-0.73388 l 0.09173,-0.45867 c 0.122312,0 0.214046,0.18347 0.275203,0.5504 0.122312,0.4281 0.244624,0.88677 0.366937,1.37602 0.122313,0.48925 0.214047,1.00907 0.275203,1.55948 0.06115,0.55041 0.09173,0.94792 0.09173,1.19255 0,0.36694 0.122312,0.91735 0.366937,1.65122 0.305781,0.79503 0.458672,1.4066 0.458672,1.83469 0,0.12231 -0.03058,0.21405 -0.09173,0.2752 v 0.18346 c 0,0.18347 0.183469,0.33637 0.550406,0.45868 0.366937,0.12231 0.550406,0.2752 0.550406,0.45867 0,-0.18347 -0.06116,-0.0306 -0.183469,0.45867 l -1.651218,0.82561 0.275203,0.64214 c 0.183469,0.4281 0.366937,0.8562 0.550406,1.28429 0.366937,0.85619 0.550406,1.49833 0.550406,1.92642 0,0.42809 -0.06116,0.76444 -0.183468,1.00907 -0.06115,0.24462 -0.336357,0.51982 -0.82561,0.82561 l -2.843765,0.36693 c 0,0.36694 0.244625,0.88677 0.733875,1.55949 0.48925,0.67272 0.733875,1.10081 0.733875,1.28427 0,0.73388 0.09173,1.19255 0.275203,1.37602 0.244625,0.24463 0.366937,0.7033 0.366937,1.37603 0,0.18347 -0.152891,0.67271 -0.458672,1.46774 l -0.825609,0.64215 c 0.305781,0.67272 0.856188,1.00908 1.651219,1.00908 0.305781,0 0.733875,-0.0612 1.284281,-0.18347 0.550406,-0.12231 0.9785,-0.18347 1.284281,-0.18347 0.48925,0 1.192547,0.12231 2.109891,0.36694 0.9785,0.30577 2.018156,0.64213 3.118967,1.00908 1.161969,0.36693 2.323935,0.76445 3.4859,1.19255 1.161967,0.42809 2.201623,0.79502 3.11897,1.1008 0.73388,0 1.834693,0.12231 3.30244,0.36694 1.528907,0.24463 2.62972,0.36694 3.30244,0.36694 0.856189,0 2.018151,-0.24463 3.485901,-0.73388 0.48925,0.48925 1.07024,0.67272 1.74296,0.55041 0.67272,-0.0611 1.22312,-0.0917 1.65121,-0.0917 0.61157,0 1.03966,0.18347 1.28429,0.5504 l 2.75203,-0.36693 c 0.0611,0 4.34207,-0.91734 12.84281,-2.75203 0.42809,0 0.94792,-0.0917 1.55948,-0.27521 0.67272,-0.18347 1.19255,-0.39751 1.55948,-0.64214 0.36695,-0.18347 0.51984,-0.36694 0.45868,-0.55041 -0.0611,-0.18347 -0.51981,-0.2752 -1.37602,-0.2752 -0.61156,0 -0.67271,-0.24463 -0.18346,-0.73388 0.55041,-0.48925 1.2537,-0.97849 2.10988,-1.46774 0.85619,-0.48925 1.68181,-0.88677 2.47684,-1.19255 0.85618,-0.24463 1.28427,-0.15289 1.28427,0.2752 0,0.73388 0.0917,0.97851 0.27521,0.73388 0.24463,-0.18347 0.61156,-0.64215 1.10081,-1.37602 0.48925,-0.73387 1.10082,-1.62064 1.83469,-2.66029 0.79503,-1.03966 1.77353,-2.01816 2.9355,-2.9355 0.36694,-0.24463 0.7033,-0.64214 1.00907,-1.19255 0.30579,-0.55041 0.58099,-1.10081 0.82562,-1.65122 0.30578,-0.55041 0.5504,-1.07023 0.73387,-1.55948 0.24463,-0.4281 0.4281,-0.70331 0.55041,-0.82562 z m -66.41569,-47.33493 0.09173,0.275203 -0.09173,-0.183468 c 0,-0.06115 -0.03058,-0.183466 -0.09173,-0.366938 0,0.122313 0.03058,0.214047 0.09173,0.275203 z m -0.183469,25.410421 v 0.64214 h 0.275203 v -0.64214 z m 1.284282,-11.008124 -0.366938,1.009078 h 0.366938 z M 72.5212,73.2113 v 0.917343 h 0.366938 V 73.2113 Z m 45.13332,57.97612 h -2.29337 c 0.61156,-0.79503 1.07023,-1.19255 1.37602,-1.19255 0.12231,0 0.30578,0.0612 0.5504,0.18347 0.24463,0.12231 0.36695,0.45867 0.36695,1.00908 z m -6.78835,-4.31151 3.02723,-1.00908 v 0.82561 c -0.73387,0 -1.74295,0.18347 -3.02723,0.5504 -1.22313,0.36694 -2.04874,0.55041 -2.47683,0.55041 -0.42809,0 -0.88677,-0.0612 -1.37602,-0.18347 -0.48925,-0.12231 -0.15289,-0.18347 1.00908,-0.18347 0.79503,0 1.74296,-0.18347 2.84377,-0.5504 z m 19.08075,-8.5313 -10.18252,2.56857 8.07263,-0.18347 c -0.55041,0.67271 -0.91734,0.91734 -1.10081,0.73387 -0.12231,-0.12231 -0.0917,-0.39752 0.0917,-0.82561 0.24462,-0.42809 0.61156,-0.91734 1.10082,-1.46775 0.5504,-0.48925 1.22312,-0.76446 2.01815,-0.82561 z m 4.67845,-3.66938 c -0.0611,0.24463 -0.2446,0.36694 -0.5504,0.36694 -0.67272,0 -1.03966,-0.36694 -1.10082,-1.10081 h 0.18347 c 0.0611,0 0.0917,-0.0306 0.0917,-0.0917 h 0.0917 c 0.55041,0 0.9785,0.2752 1.28428,0.8256 z m -8.89823,-1.19255 c -0.12231,0 -0.21405,0.0306 -0.27521,0.0917 h -0.27519 c -0.36695,0 -0.76446,-0.18347 -1.19255,-0.5504 -0.36695,-0.36694 -0.67273,-0.55041 -0.91735,-0.55041 l 0.73388,-0.73388 c -0.12232,0.12231 -0.0612,0.27521 0.18347,0.45868 0.30577,0.18347 0.48924,0.2752 0.5504,0.2752 h 0.91734 c 0.18347,0 0.27521,0.33636 0.27521,1.00907 z m -3.02724,-3.94457 v 0.82561 h -0.82561 z m 12.29241,0.0917 v 0.27519 l -0.18347,0.0917 h -0.27521 c -0.5504,0 -0.8256,-0.39751 -0.8256,-1.19254 0,-0.24463 0.12231,-0.45868 0.36694,-0.64215 0.67272,0 1.00908,0.39752 1.00908,1.19255 0,0.12231 -0.0306,0.21405 -0.0917,0.27521 z m -53.572877,-2.01816 h -0.825609 l 0.458677,-1.19255 z m 2.201628,-2.10989 h 1.376011 v 0.91734 h -0.18347 -0.09173 c 0,0.0611 -0.03058,0.0917 -0.09173,0.0917 -0.366941,0 -0.7033,-0.33636 -1.009079,-1.00908 z M 76.465778,93.025924 h -0.917343 l 0.733875,-1.100813 0.09173,0.366938 c 0.06115,0.244625 0.09173,0.48925 0.09173,0.733875 z"
       style="font-style:normal;font-variant:normal;font-weight:normal;font-stretch:normal;font-size:101.219px;line-height:1.25;font-family:'DS Eraser Cyr';-inkscape-font-specification:'DS Eraser Cyr';fill:#ffffff;fill-opacity:1;stroke:none;stroke-width:2.29335"
       id="path847"
       sodipodi:nodetypes="cccsscccccccccccccssssccccsscccccccsccccccccccsccscscccsccscscscccscscscsccccccsccsccsccccccccccsccssccscscccccscscscssccccsscsssssscssscsccccscssssscsscsscccscscsccsssccccccccccccsscccccsccccscsccssssscsccccccscscsccsscccsscsccsccssscscsscccssscccssssccsssccsccsccscccccsscscscsccscccccccccccccccccccccccccsscscccsssscccsccsccscscsccccsccccsssccccccccsscssccccccccccscccccssc" /><path
       d="m 194.98259,126.3714 v 0.73387 h 0.36693 q 0.0917,0 -0.0917,-0.36694 -0.18347,-0.2752 -0.27521,-0.36693 z m -22.75012,-4.95366 v 0.36694 h 0.73387 v -0.36694 z m 32.93264,-13.76016 q -1.28429,0 -1.28429,-0.8256 0,-0.36695 0.18347,-1.00908 0.18347,-0.64214 0.18347,-0.91735 0,-0.73387 0,-1.28428 0.0917,-0.5504 0.0917,-1.37601 0,-0.45868 -0.18347,-1.19255 -0.18347,-0.73388 -0.73387,-1.284279 l -0.0917,-0.0917 h -0.36694 q -0.36693,0 -0.45867,0.366929 -0.0917,0.36694 -0.0917,0.73387 0,0.45868 0.36693,1.55949 0.45868,1.10082 0.45868,1.55948 0,0.82561 -1.28429,1.00908 -0.5504,-0.0917 -1.10081,-1.19255 -0.55041,-1.00908 -1.00907,-2.20162 -0.45868,-1.19255 -0.82562,-2.201619 -0.36693,-0.91735 -0.5504,-0.91735 -0.82561,0 -1.46775,0.64214 -0.82561,0 -1.46776,-1.00908 -0.64213,-0.91734 -1.19254,-1.83468 -0.45867,-0.82561 -0.73388,-1.10082 -0.18346,-0.2752 -0.18346,1.10082 v 0.91734 q 0,1.10081 -1.00908,1.10081 -0.73388,-1.65122 -1.46775,-2.56856 -0.73388,-0.91734 -1.83469,-1.46775 -1.10082,-0.55041 -2.84377,-0.917343 -1.74295,-0.275203 -4.49498,-0.825609 l -0.82561,-0.82561 -1.37601,1.192547 q -0.18347,-0.275203 -1.55949,-1.009078 -1.37601,-0.733875 -2.56856,-1.284281 -1.10082,-0.458672 -1.28429,-0.550406 -1.19254,0 -1.37601,0.366937 -0.18347,0.366938 -0.0917,0.82561 0.0917,0.550406 0.0917,1.009078 0.0917,0.458672 -0.64214,0.64214 h -1.19254 q -1.00908,0 -1.37603,0 -0.27519,0.09173 -0.27519,0.183469 0.0917,0.183469 0.27519,0.458676 0.18348,0.2752 0.18348,0.73387 0,0.2752 -0.36694,0.91734 -0.36694,0.64215 -0.36694,1.00908 0,0.45867 0.73388,1.00908 v 1.92642 q 1.00907,-0.5504 1.83468,-0.5504 0.82561,0 2.3851,0.64214 1.65122,0.64214 2.01815,0.64214 1.28429,0 2.10989,-1.55949 1.19255,0 1.74296,1.19255 0.64214,1.284289 1.10081,1.376009 l 2.56856,-1.009069 1.10082,3.302439 q 1.19255,-0.91735 1.74295,-0.45868 0.64214,0.45868 1.10081,1.19255 0.45867,0.73387 0.91735,1.19255 0.45866,0.5504 1.28428,-0.27521 l 0.73387,0.55041 q -0.18347,-0.18347 -1.00908,1.00907 -0.73387,1.19255 -0.73387,1.28429 l 0.0917,0.18347 v 0.27521 q 0,-0.0917 0.82561,-0.0917 0.8256,0 0.64213,0 1.46775,0 1.74296,1.00908 0.2752,1.1008 -0.64214,1.65122 l -0.91735,-0.36694 q 0.55041,0.18347 0.82561,0.64213 0.27521,0.45868 0.27521,0.73389 0,0.45866 -0.73388,1.37601 -0.64214,1.00908 -0.64214,1.74295 0,0.64215 0,0.73387 0.0917,0.0917 -0.36693,0.82562 h -0.64215 l -0.27521,-0.27521 q 0.0917,0.0917 0.0917,0.45867 0,0.45868 0,0.45868 0,0.82561 -0.5504,2.29335 -0.45868,1.46776 -0.45868,2.01816 h -0.2752 l -0.18347,-0.0917 q -0.2752,-0.0917 -1.00908,0.36695 -0.73387,0.5504 -1.55948,1.19255 -0.82561,0.73387 -1.65122,1.28427 -0.73388,0.64214 -1.28428,0.64214 -0.18347,0 -0.27521,-0.0917 h -0.27519 q -0.55041,0 -2.1099,0.45867 -1.46775,0.45868 -2.3851,0.45868 l -1.00907,0.91734 q -2.20162,-2.75203 -3.11897,-2.75203 -1.28428,0 -2.01816,1.28427 -0.64213,1.28429 -1.55948,1.28429 -0.64213,0 -1.37602,-0.55041 -0.64214,-0.5504 -1.37601,-0.5504 0,1.00907 -0.64214,0.91734 -0.55041,0 -1.37602,-0.64214 -0.8256,-0.64215 -1.83468,-1.83469 -1.00908,-1.10081 -1.83469,-2.29336 h -0.73387 q -0.18347,0 -0.27521,0.55041 -0.0917,0.64214 -0.0917,0.73387 0,0.82561 1.10082,2.56857 1.10081,1.74295 1.10081,2.66029 0,0.73387 0.18347,1.46775 0.18347,0.82561 0.91735,0.82561 0.36693,0 0.64214,-0.36694 0.36694,-0.2752 0.5504,-0.2752 0.0917,0 0.18347,0.0917 h 0.0917 q 0.55041,0.27521 0.64214,0.73388 0.18347,0.55041 0.27521,1.00908 0.0917,0.45867 0.2752,0.73387 0.18347,0.36694 0.91735,0.36694 0.27519,0 0.82561,-0.36694 0.5504,-0.2752 1.10081,-0.64214 0.64214,-0.27521 1.1008,-0.5504 0.45868,-0.18347 0.64215,0.0917 l 0.36693,0.64214 q 0.0917,0.0917 0.0917,0.91734 l -0.73387,0.73388 q -0.27521,0.2752 -0.55041,0.2752 l -0.2752,-0.0917 q 0.18347,0.0917 0.2752,0.36694 0.18346,0.36693 0.45867,0.36693 0.27521,0 0.91734,-0.5504 0.64214,-0.45868 0.82561,-0.55041 l 0.64215,1.65122 q 0.36693,0 2.10988,-0.64214 1.83469,-0.64214 2.20163,-1.19254 0.55041,0.5504 0.82561,0.91734 0.36694,0.45867 0.5504,0.45867 0.36694,0 0.82561,-0.0917 0.45868,-0.0917 3.30244,0.0917 0.55041,0 2.20162,-0.45867 l 0.36695,-0.36694 q -0.73388,-0.45868 -1.00908,-0.73387 -0.18347,-0.27521 -0.18347,-0.45868 v -0.18347 q 0,-0.0917 0,-0.18346 0.0917,0 0.0917,-0.0917 l 0.64215,-0.45867 q -0.18347,0.0917 0.45867,0.2752 0.64213,0.18347 0.64213,0.27521 1.28429,0 2.6603,-0.82561 1.46775,-0.73388 2.10989,-0.55041 0.18347,-0.73388 1.28429,-2.20162 1.19255,-1.37602 2.47682,-2.66031 1.37602,-1.19254 2.47683,-1.83469 1.10081,-0.64213 1.10081,0 v 0.73389 q 0,-0.36694 0.73388,-1.83469 0.82561,-1.46776 1.28428,-1.46776 1.10081,0 1.19255,-0.5504 0.0917,-0.45867 1.10081,-2.47682 0.2752,-0.45868 0.55041,-1.19255 0.2752,-0.73388 0.36694,-1.37602 0.18346,-0.64214 0,-1.10081 -0.18347,-0.45867 -0.82562,-0.45867 h -1.00907 q -0.45868,0 -0.45868,-1.00908 0.27521,0 0.82561,-0.64214 0.64214,-0.55041 1.10082,-0.55041 h 0.18347 q 0.0917,0 0.0917,0 0.0917,0.0917 0.18346,0.0917 l 0.82562,1.28429 q 0.64214,1.00908 0.5504,0.2752 0,-0.64214 0,-1.00908 0,-0.45867 0.73388,-1.74295 0.73387,-1.28428 0.73387,-1.83469 0,-0.8256 -0.36693,-1.19255 z m 3.66937,-3.66937 v -1.00908 q 0,-0.91734 -0.73387,-1.37601 h -0.27521 l -0.18347,-0.0917 q -0.8256,-0.45867 -1.28428,0.36694 -0.45867,0.8256 -0.45867,1.37602 0.27521,1.46774 1.74295,1.46774 0.73388,0 1.19255,-0.73387 z m -69.80985,-8.989969 v 1.10081 h 0.27519 v -1.10081 z m 20.8237,-5.137125 q -0.55041,-0.917343 -1.19255,-2.568562 -0.64214,-1.651219 -0.64214,-3.669375 0,-0.825609 -0.27521,-2.201625 -0.27519,-1.284281 -0.64214,-2.752031 -0.36694,-1.46775 -0.64213,-2.752031 -0.27521,-1.284281 -0.27521,-1.926422 h -0.36694 l -0.36693,2.385094 Q 154.436,75.917492 154.436,74.541476 v -1.284281 q 0,-0.825609 -0.0917,-1.559484 -0.0917,-0.642141 1.00908,-0.642141 0.64214,0 1.55948,0.458672 0.91735,0.458672 0.91735,0.458672 0,-0.825609 0.2752,-2.476828 0.36694,-1.651219 0.36694,-2.476828 0,-0.825609 -0.82561,-1.742953 -0.73388,-0.917344 -1.83469,-1.651219 -1.10081,-0.733875 -2.38509,-1.192548 -1.19255,-0.458672 -2.10989,-0.458672 -1.10081,0 -1.74296,0.09173 -0.64213,0.183469 -1.46774,0.183469 -1.92643,0 -1.65122,0.550407 0.2752,0.64214 1.00908,1.376015 0.82561,0.733875 1.28428,1.284282 0.45867,0.64214 -1.19255,0.64214 -0.0917,-0.458672 -0.73388,-0.917344 -0.5504,-0.458671 -1.28427,-1.009078 -0.64215,-0.458672 -1.19255,-1.009078 -0.45868,-0.550407 -0.45868,-1.100813 l -0.36693,-0.09173 q -0.45868,-0.183468 -0.82561,0.733876 -0.36694,0.917344 -0.45868,1.100813 v 0.275203 q 0,0.09173 -0.0917,0.183469 0,0.09173 0,0.183468 l 0.0917,0.366938 q 0.18347,0.733875 0.27521,1.376016 0.0917,0.733874 -0.64214,1.284281 -0.73388,0 -1.00908,0 -0.18347,0 -0.18347,0.09173 0.0917,0.183469 0.18347,0.642141 0.18347,0.458672 0.18347,1.284281 0,0.09173 -0.18347,0.550406 -0.18347,0.458672 -0.45867,0.183469 h -0.18347 q -0.64214,0 -0.64214,1.009078 0,0.183469 0.0917,0.275203 v 0.275203 q 0,0.550406 1.37602,1.46775 1.37601,0.917344 1.37601,1.559484 0,1.100813 1.00908,1.926422 1.00908,0.917344 1.00908,1.376016 0,0.550406 -0.91734,1.192547 l 1.10081,0.733875 q -1.37602,0.458672 -1.37602,1.559484 0,0.366937 0.27521,1.192547 0.2752,0.917344 0.2752,1.376015 0,0.917344 -1.55949,1.651219 l 1.28429,5.412328 1.10081,2.201633 0.91735,-1.009086 0.73387,3.210706 q 0.27521,1.00908 -0.64214,1.10081 -0.82562,0.0917 -1.00908,0.0917 -1.19255,0 -1.65122,-1.10081 -0.0917,0.64214 -0.18346,1.28428 0,0.64214 0,0.91734 0,0.73388 -0.55042,1.10081 l 1.65122,0.36694 q -0.36693,0.642139 -0.36693,1.009079 0,0.73387 1.37601,1.55948 1.37602,0.91735 1.74295,1.28429 -0.27519,0.5504 -0.45867,1.00908 -0.0917,0.45866 -0.64213,0.64213 l -0.91735,-0.18347 -1.10081,4.58672 q 0.91734,0 1.28427,0.55041 0.36695,0.64214 0.36695,1.37601 0.0917,0.82561 -0.0917,1.37602 -0.0917,0.64214 -0.0917,0.64214 v 0.27521 l 1.28428,0.18346 q 0.45867,0 0.45867,0.55041 0,0.0917 -0.0917,0.18347 v 0.18346 q -0.0917,0.36694 -0.5504,0.36694 -0.82561,-0.18347 -0.36694,0.27521 0.55041,0.5504 1.19255,1.19254 0.64214,0.64215 0.82561,1.19255 0.18347,0.64214 -1.37601,0.64214 -0.64215,0 -1.19255,0.55041 -0.55041,0.5504 -0.91735,0.91734 0.73388,0.45867 0.91735,1.83469 0.18347,1.46775 0.36694,1.83469 v 4.03631 q 0,0.0917 0.45866,0.0917 0.45868,0 0.82561,0 1.10082,0 2.6603,-0.36693 1.65122,-0.27521 3.21071,-1.00908 1.55948,-0.64215 2.56856,-1.74295 1.10081,-1.00908 1.10081,-2.47684 0,-0.5504 -0.36694,-1.55948 -0.2752,-0.91734 -0.2752,-1.28428 0,-0.45867 0.64214,-2.20162 0.73387,-1.65122 0.73387,-3.57764 0,-2.20163 -0.91734,-4.40325 0,-1.37602 0.36694,-2.75203 0.36693,-1.37602 0.82561,-2.47684 0.45867,-1.10081 0.82561,-1.83468 0.36693,-0.73388 0.36693,-0.73388 0,-0.82561 -1.1008,-2.201629 -1.00908,-1.28427 -1.00908,-1.74294 0,-0.64215 0.64213,-1.28429 0.73388,-0.64214 0.73388,-1.46775 0,-0.73387 -0.91735,-1.926422 -0.91734,-1.192547 -0.91734,-1.559484 0,-0.733875 0.36694,-0.917344 0.45867,-0.183469 1.00908,-0.09173 0.5504,0.183469 1.10081,0.366937 0.55041,0.275203 0.82561,0.275203 0.36693,0 0.55041,-0.733875 z M 140.58411,67.294461 q -0.45867,-0.458672 -0.64214,-0.366938 -0.18347,0.183469 0.64214,0.366938 z m 26.41949,23.575734 -0.5504,0.825609 0.5504,-0.458672 z m 10.6412,-0.366938 v 0.366938 h 0.45866 v -0.366938 z m -11.55854,-4.678453 h 1.28429 q 0,-0.733875 -0.27521,-0.825609 -0.18347,0 -0.27521,-0.09173 h -0.18346 q -0.2752,0 -0.36694,0.366938 -0.0917,0.458672 -0.18347,0.550406 z M 204.8899,63.533352 q -3.66937,-2.29336 -5.22885,-2.29336 -0.82561,0 -2.3851,0.733874 -1.46775,0.733876 -2.9355,1.559486 -1.37602,0.825609 -2.38509,1.46775 -1.00908,0.64214 -0.82561,0.550406 -4.03632,2.568562 -5.32059,4.586718 -3.11898,1.834688 -7.06356,4.311516 -3.85283,2.568562 -6.51313,5.228859 0,0 -0.91734,0.733875 -0.82562,0.825609 -1.83469,1.742953 -0.91734,0.917344 -1.37602,1.651219 -0.45867,0.825609 0.36694,0.825609 0.18346,0 0.64214,-0.275203 0.5504,-0.183469 0.82561,-0.183469 l 0.18347,0.09173 q -0.0917,-0.09173 -0.27521,0.550406 -0.18347,0.642141 -0.18347,0.550406 0,0.09173 0.0917,0.183469 v 0.183469 q 0.0917,-0.366938 0.91734,-0.733875 0.82561,-0.366938 1.19255,-0.366938 0.73387,0 1.10081,0.366938 l 0.55041,1.009078 q 0.18347,0.275203 0.36694,0.275203 h 0.18347 q 0.36693,0 0.18346,-0.366938 -0.0917,-0.275203 -0.0917,-0.458671 0,-0.458672 0.45868,-1.009079 0.5504,-0.458671 0.91734,-0.550406 1.28429,0.733875 1.83469,0.550406 0.5504,-0.09173 0.73387,-0.64214 0.18347,-0.458672 0.36695,-1.009078 0.18347,-0.550406 0.73387,-0.550406 0.82561,0.825609 1.92642,0.183468 1.19255,-0.550406 2.38509,-1.742953 1.19255,-1.100812 2.29337,-2.293359 1.19254,-1.192547 2.10988,-1.651219 0.27521,0.09173 0.45868,0.642141 0.2752,0.550406 0.45866,1.009078 0.27521,0.458672 0.36694,0.642141 0.18347,0.275203 0.18347,-0.275204 v -0.825609 q 0,-0.917344 0.36695,-1.926422 0.36693,-1.009078 0.8256,-1.651218 0.45867,-0.550407 0.82561,-0.733875 0.36693,-0.09173 0.36693,0.64214 v 0.183469 q 0,0.09173 -0.0917,0.09173 0,0.09173 0,0.183469 v 0.917344 q 0.55041,-0.183469 1.83469,-1.284281 1.28428,-1.100813 1.92642,-1.100813 0.73388,0 0.73388,-0.183469 0,-0.09173 -0.2752,-0.366937 -0.27521,-0.275203 -0.64214,-0.642141 -0.27521,-0.366937 -0.27521,-0.825609 0,-0.642141 0.91735,-0.733875 0.91734,-0.09173 1.37601,-0.09173 0.82561,0 3.30244,-0.275204 1.28428,0 1.37601,0.917344 0.36694,-0.183469 0.64215,-0.366937 0.36693,-0.183469 0.73387,-0.366938 0.2752,0 0.64214,0.366938 0,-0.458672 -0.45867,-0.642141 -0.36694,-0.183469 -0.45867,-0.366937 h -0.18348 q -0.18347,0 -0.45866,0.183468 -0.27521,0.183469 -0.45868,0.183469 -0.36693,0 0.0917,-0.64214 0.55041,-0.642141 0.55041,-1.100813 0,-0.366937 -0.18347,-1.100812 -0.18347,-0.642141 -0.18347,-0.917344 0,-0.917344 1.00908,-1.376016 l 1.10081,1.192547 q 0.18346,0.275203 0.2752,-0.09173 0.18347,-0.366938 0.18347,-0.917344 0.0917,-0.458672 0.0917,-1.009078 0,-0.458672 0,-0.550406 z m 5.32059,6.237937 v -1.100812 q 0,0.366937 -0.64213,0.550406 -0.64214,0.183469 -0.73388,0.183469 -0.36694,0 -1.10081,-0.275204 -0.73387,-0.183468 -1.10082,-0.183468 -0.64213,0 -0.73387,0.09173 l -0.36694,2.385094 q 1.46776,-1.742953 3.85285,-1.742953 0.73387,0 0.8256,0.09173 z m -29.99713,-1.192547 -0.36694,-0.366937 -0.64214,0.458672 q 0.2752,-0.183469 0.64214,0.183468 0.36694,0.366938 0.36694,-0.275203 z m 28.62112,-2.10989 -0.36694,1.376015 0.36694,-0.366937 z m -0.36694,-1.192547 q 0,-0.458672 0.18347,-0.917344 0.18347,-0.458672 0.18347,-0.550406 0,-0.275203 -0.73387,-0.275203 -0.27521,0.09173 -0.27521,0.458672 0,0.09173 0.0917,0.183468 v 0.183469 q 0.0917,0.458672 0.5504,0.917344 z m -48.98616,-3.669376 -0.36693,0.458672 h 0.36693 z m 23.02533,69.718121 0.36694,2.01816 -0.45867,0.0917 q -1.28428,0.18347 -0.82561,-0.8256 0.55041,-0.91735 0.91734,-1.28429 z m 5.5958,-3.66937 -0.0917,0.0917 -0.0917,0.27521 0.45868,0.73387 q 0.18347,0.27521 -0.55041,0.73387 -0.64214,0.55041 -0.64214,0.55041 -0.0917,-0.2752 -0.45867,-1.00907 -0.27521,-0.73389 -0.27521,-0.82561 0,-0.36694 0.45868,-0.64215 0.5504,-0.18347 0.73387,-0.18347 0.45867,0 0.45867,0.27521 z m 2.29336,-2.56856 v 0.73387 l -0.36694,0.36694 z m 4.58672,-8.8065 v 1.65122 h -0.91734 l -0.0917,-0.55042 q -0.0917,-1.1008 1.00908,-1.1008 z m -46.14239,0.18346 -0.27521,0.27521 q -0.18346,0.18347 -0.45866,0 -0.18347,-0.0917 -0.18347,-0.55041 v -1.00908 l 0.73387,0.73388 q 0.18347,0.18347 0.18347,0.5504 z m 52.74727,-0.18346 q -0.73388,0.2752 -1.37602,0.45867 -0.64214,0.2752 -0.64214,1.19255 h -0.91734 q 0.0917,0 0.0917,-0.36695 0.0917,-0.36693 0.0917,-0.5504 0,-0.73387 -0.73388,-1.92642 -0.73388,-1.19255 -0.73388,-1.92642 0.18347,0.0917 0.64215,0.5504 0.45867,0.55041 1.00907,1.10081 0.64215,0.55042 1.28428,1.00908 0.73388,0.45868 1.28429,0.45868 z m -7.88916,-2.3851 v -0.91734 l 0.36694,0.18347 q 0.2752,0.18347 -0.0917,0.45866 -0.36694,0.27521 -0.2752,0.27521 z m 8.98996,-4.21978 v 0.91735 h -0.73387 z m -3.11896,0 v 0.55041 l -0.55041,-0.55041 z m -52.38033,-1.46775 q 0.36694,0.36694 0.36694,1.28428 0,1.00908 -0.55041,0.73388 -0.5504,-0.18348 -1.10081,-0.91735 -0.5504,-0.64214 -0.82561,-1.46774 -0.27521,-0.82561 0.36694,-1.00908 h 0.18347 q 0.45867,0 0.82561,0.64213 0.36693,0.73388 0.73387,0.73388 z m 50.63738,-2.9355 h 0.45867 v 0.36694 q 0,0 -0.18347,-0.18347 -0.18347,-0.0917 -0.2752,-0.18347 z m -3.39418,-1.83468 v -0.18347 h 1.28429 q 0.36694,0 0.45867,0.36693 0.18346,0.36694 0.18346,0.55041 0,1.83469 -0.64213,1.83469 -0.36695,0 -0.91735,-0.82561 -0.45867,-0.82561 -0.45867,-1.46776 0,-0.18347 0.0917,-0.27519 z m -47.61014,-3.39418 q -0.5504,1.10081 -1.83468,1.10081 -0.36694,-0.36694 -0.36694,-0.82561 0,-0.366939 0.82561,-0.917339 0.82561,-0.5504 0.82561,-1.19255 0.18347,0.27521 0.36693,0.45868 0.18347,0.27519 0.27521,0.45867 v 0.55041 q 0,0.0917 -0.0917,0.18346 0,0.0917 0,0.183469 z m 7.70569,-1.742949 h -1.10081 v -0.82561 h 0.73387 q 0.36694,0 0.36694,0.82561 z m 19.08075,-4.12805 q -0.2752,0.36694 -1.00908,0.36694 v -1.10081 h 0.64214 q 0.18347,0 0.27521,0.36693 0.0917,0.36694 0.0917,0.36694 z m -18.71381,-2.476827 v 0.733875 h -0.73388 z m -8.62303,-2.9355 0.0917,0.550406 q 0.18347,0.642141 -0.55042,1.376016 -0.73387,0.825609 -0.8256,0.917343 l 0.55041,-2.10989 q -1.74296,-0.09173 -2.01816,-1.926422 h 0.2752 q 0.0917,0 0.0917,-0.09173 0,0 0.0917,0 0.55041,0 1.19255,0.64214 0.73387,0.642141 1.10081,0.642141 z m 10.27425,-1.926422 h -0.36694 v -1.742953 h 0.36694 z m -1.10081,-5.871 -0.55041,-0.917343 h 0.91734 l 0.36694,0.550406 q -0.0917,-0.09173 -0.36694,0.09173 -0.2752,0.183469 -0.36693,0.275203 z m -9.54038,-4.586718 h 0.73387 q 0.0917,0 0.18347,0.733875 0.0917,0.733875 0.0917,0.917343 0,1.100813 -0.27521,1.100813 -0.27519,0.09173 -0.5504,-0.366938 -0.27521,-0.458671 -0.36694,-1.192546 -0.0917,-0.733875 0.18347,-1.192547 z m -1.28428,-4.953656 q 0,0.550406 -0.73388,1.284281 -0.64214,-0.366938 -0.64214,-1.192547 0,-0.366937 0.27521,-0.458672 1.00908,0 1.10081,0.366938 z m 4.58672,-1.651219 v 0.917344 q 0,0.09173 0.0917,0.183468 0.0917,0.183469 0.0917,0.275204 l -0.0917,0.366937 q -0.18347,0.917344 -0.91735,0.275203 -0.73388,-0.550406 -0.45867,-1.100812 l 0.5504,-0.550407 q 0.27521,-0.366937 0.73388,-0.366937 z m 5.68753,-0.733875 h 0.55041 v 0.733875 q 0,0.09173 -0.27521,-0.09173 -0.2752,-0.183469 -0.18347,-0.09173 v -0.183468 q 0,-0.09173 -0.0917,-0.183469 0,-0.09173 0,-0.183469 z m -10.64119,-0.275203 v 0.642141 l -0.5504,-0.550407 q -0.36694,-0.366937 -0.36694,-0.64214 h 0.5504 q 0.36694,0 0.36694,0.550406 z"
       style="font-style:normal;font-variant:normal;font-weight:normal;font-stretch:normal;font-size:101.219px;line-height:1.25;font-family:'DS Eraser Cyr';-inkscape-font-specification:'DS Eraser Cyr';fill:#ffffff;fill-opacity:1;stroke:none;stroke-width:2.29335"
       id="path849" /><path
       d="m 375.22855,103.2496 q 0,-0.11809 -0.11809,-0.47252 0,-0.23626 0,-0.47252 v 0.35439 q 0,0.47252 0.11809,0.59065 z m -0.70877,-4.843283 q 0,3.661983 0.70877,2.953223 0.70878,-0.70877 0.70878,-2.953223 0,-1.299418 -0.94504,-2.008183 -0.47251,0.826901 -0.47251,2.008183 z m 61.07256,-22.562588 q 0,-0.708772 -0.8269,-1.653802 -0.70878,-0.826902 -0.70878,-1.299416 l 0.59066,-0.590644 q -1.89008,0 -2.8351,-0.708772 -0.94504,-0.708772 -2.00818,-1.653802 -0.94504,-0.826902 -2.48072,-1.535674 -1.41754,-0.708773 -4.25264,-0.708773 -1.6538,0 -3.42573,0.590644 -0.11809,0 -1.18129,-0.118123 -1.06315,-0.118123 -2.36257,-0.236258 -1.29942,-0.118123 -2.59883,-0.354386 -1.18128,-0.118123 -1.6538,-0.354386 0.23626,-0.236258 0.3544,-0.354386 0.23624,-0.118123 0.35437,-0.236258 V 66.51157 q 0.11808,-0.118123 0.11808,-0.472516 -1.29942,-0.118123 -2.36258,-0.236256 -0.94502,0 -1.29942,-1.06316 -0.8269,2.598832 -2.12631,2.598832 -1.29942,0 -2.24445,-1.77193 -0.94502,-1.653802 -1.18128,-1.653802 -0.11808,0 -0.23626,0.118123 h -0.35438 q 0.11808,0 -0.3544,0.590644 -0.35438,0.708772 -0.59064,1.063158 l -2.12632,-2.126318 -1.18128,1.181288 q -0.11808,-0.590644 -1.18129,-1.063158 -1.06315,-0.354386 -2.36257,-0.94503 -1.18129,-0.472516 -2.24445,-1.063158 -1.06315,-0.590644 -1.29941,-1.535674 -2.0082,2.008188 -3.30761,2.008188 l -0.70877,-0.118123 q -0.47252,0 -0.8269,-0.708773 -0.35438,-0.590643 -0.59064,-0.590643 -0.23626,0 -1.1813,1.535673 -0.94502,1.535673 -2.00819,2.835089 -1.06315,1.299416 -1.89005,1.535674 -0.8269,0.236258 -0.8269,-2.362574 0.35438,-0.472516 0.70877,-0.472516 0.59065,0 0.70877,0.118123 l 0.70878,0.354386 q 0.23626,0 0.23626,-0.236257 0,0 -0.11808,-0.236258 0,-0.236258 -0.11809,-0.708772 l -4.01639,-2.008188 q -0.59063,3.543862 -2.4807,3.543862 -0.94503,0 -1.41753,-0.826902 -0.47252,-0.708772 -2.24446,-0.708772 0,0.118123 -0.11808,0.236258 v 0.236256 q 0,0.472516 0.94502,1.417546 0.94504,1.063158 1.77193,1.653802 0.82691,0.708772 0.94505,0.826901 0,0.826901 -1.1813,1.299416 l -0.82691,-0.94503 v 0.354386 q 0,0.354386 -0.47251,1.181288 -0.47252,0.8269 -0.47252,1.063158 0,1.181288 0.59066,0.826902 0.70876,-0.236258 1.41753,-0.708773 0.70877,-0.472515 1.29942,-0.590643 0.70877,-0.118123 0.70877,1.535672 0,0.708774 -0.59064,2.126318 -0.4725,1.535674 -0.4725,2.126318 0,1.299416 0.94502,2.244446 -1.77194,0 -3.662,4.725149 1.1813,0 1.6538,-1.89006 0.47252,-1.771931 0.8269,-1.771931 1.41756,0 1.29942,1.181287 -0.11808,1.181288 -0.11808,2.244446 h 0.35438 q 0.11809,0 0.11809,-0.118123 0,0 0.11808,0 0.59064,0 0.94502,0.826901 0.47252,0.826901 0.59066,1.890059 0.23626,1.063158 0,1.89006 -0.23627,0.826902 -0.94504,0.826902 -0.11808,0 -0.23626,-0.118123 h -0.23626 l -1.18128,-1.063158 q -0.35439,0.945029 -1.06316,1.417544 -0.70876,0.590644 -1.29942,0.826901 -0.4725,0.354386 -0.59064,0.354386 0,0.118124 0.8269,0.118124 1.65382,0 2.36258,-0.354388 0.8269,-0.236256 0.8269,1.417546 0,0.8269 -0.59064,1.417544 h 0.70876 v 1.181293 q 0,0.708777 -0.11808,1.535677 -0.11809,0.826901 0.11808,1.417542 h 3.78012 q 0,0.118085 0.23626,1.06316 0.35438,1.063159 0.47252,2.244442 0.11808,1.181299 -0.35438,1.181299 -0.3544,0 -1.1813,-0.472522 -0.8269,-0.354382 -1.06314,-0.354382 -0.47252,0 -0.94505,0.472504 l 0.82691,0.8269 q -0.23626,-0.23624 -0.59065,0.47252 -0.35439,0.8269 -0.35439,0.70876 l 0.11809,0.47252 0.70879,0.47252 q -0.3544,-0.23626 0.59063,-0.8269 1.06316,-0.59064 0.94503,-0.59064 0.70878,0 1.29942,1.41754 0.59064,1.53566 1.6538,1.53566 0.47252,0 1.29942,-0.4725 0.23626,0.4725 -0.11808,2.12632 -0.23626,1.77192 -2.83509,1.77192 -0.11808,0 -0.23626,-0.11808 h -0.23626 L 380.19,106.55726 q -0.59065,0.35437 -1.29942,2.24444 -0.70877,2.00819 -1.53567,2.59884 1.06316,0 1.77193,-1.41755 0.8269,-1.29942 1.6538,-1.29942 0.11809,0 0.23626,0.11808 h 0.35438 q 0,1.06316 -0.47251,2.4807 -0.35439,1.41754 -0.8269,2.83508 -0.47252,1.41755 -0.94503,2.48071 -0.35438,1.18129 -0.35438,1.53567 0,1.53568 0.59063,2.71698 0.59065,1.18128 2.00819,1.18128 l 0.47252,-0.47252 q -2.24445,-0.8269 -2.24445,-1.29942 v -0.23626 q 0,-0.11808 0,-0.23626 0.11808,0 0.11808,-0.11808 l 0.94503,-0.70878 q -0.11809,0.11809 0.23625,0.23626 0.3544,0.11809 0.59066,0.11809 h 0.8269 q 0.47252,0 0.70876,-0.59066 0.23626,-0.4725 0.23626,-0.59064 0,-0.11808 -1.06316,-2.59884 0,-0.94502 0.3544,-0.59063 0.4725,0.35437 0.94502,1.29941 0.47252,0.94504 0.8269,2.24446 0.47252,1.2994 0.47252,2.24444 0,2.83508 -0.11808,3.07134 0,0.35439 -0.70877,3.42574 0.59064,-0.23626 1.18128,-0.47252 0.59065,-0.23626 1.06316,-0.47252 0.59064,0 0.70878,0.3544 0.23626,0.4725 0.70877,0.94502 v 0.35439 q 0,0.59063 -0.35439,1.18129 -0.23626,0.59064 -0.23626,0.94502 0,1.29942 0.94503,0.35438 1.06316,-0.94502 1.65381,-0.94502 l 0.47251,0.11808 v 0.3544 l -0.11809,0.23626 q -0.23626,0.4725 0.94504,1.41753 1.29942,1.06317 1.29942,1.65381 l -0.11809,0.47252 0.47251,-0.11809 q 0.82691,-0.11808 0.82691,2.12631 0.23625,-0.23626 0.23625,-0.47252 0,-0.59064 -0.59063,-1.53566 -0.47253,-0.94504 -0.47253,-1.29942 0,-0.70878 0.82691,-1.18128 0.35438,0.70876 2.24444,1.65378 1.89006,1.06316 2.12632,2.36258 0.47251,-2.00818 0.47251,-7.4421 v -6.37896 q 0,-1.41754 -0.8269,-3.07134 -0.82689,-1.6538 -0.82689,-2.24444 0,-0.47252 0.35438,-1.29942 0.47251,-0.82691 0.47251,-1.29942 0,-0.59064 -0.23626,-1.18128 -0.11809,-0.47252 -0.11809,-1.53568 0,-0.70876 -0.8269,-2.36257 -0.8269,-1.65381 -0.8269,-2.00819 0,-1.06316 0.11809,-2.00819 0.23626,-0.94503 0.23626,-3.18948 0,-0.82689 0.4725,-2.598826 0.47252,-1.653801 0.47252,-2.598838 0,-1.890059 -1.18128,-3.071342 l -2.59884,-2.008193 q 2.12632,-0.590644 2.12632,-2.480704 0,-1.063158 -0.47252,-2.362575 -0.47252,-1.181287 -1.06316,-2.362574 -0.59064,-1.181288 -1.06316,-1.89006 -0.4725,-0.708772 -0.4725,-0.708772 0,-0.118123 0.11808,-0.236258 V 80.68699 l 2.00818,-0.236256 q 0,-3.425734 -2.4807,-5.906438 v -0.236257 q 0,-0.472515 0.59066,-1.063159 0.70876,-0.590643 0.70876,-0.826901 1.89006,0.826901 4.1345,1.063159 2.36258,0.354386 5.78832,0.826901 2.48069,0.354386 5.90644,0.826901 3.54386,0.472514 7.4421,0.826902 4.01638,0.472514 8.15088,0.708772 4.13452,0.354386 8.03276,0.354386 0.23626,-0.826902 1.53566,-0.94503 1.41756,0 1.65382,-0.236258 z m -62.37197,-8.623397 0.35438,0.472514 q -0.11809,-0.118123 -0.11809,-0.236257 0,0 -0.23624,-0.236257 z m 1.29941,26.342706 v -1.299414 q 0,-0.354387 -0.70877,-0.354387 -0.70877,0 -0.8269,-0.118123 l 1.06316,2.953207 q 0,0 0.23625,-0.590642 0.23626,-0.472505 0.23626,-0.590641 z m 15.35674,14.884222 H 389.404 v -0.59064 h 0.47252 z m -2.59884,-9.332165 2.12632,1.299415 q -0.11808,0 -0.47251,1.06315 -0.23625,1.06316 -1.41755,1.06316 -0.70877,-1.53568 -0.70877,-2.36257 0,-0.590637 0.47251,-1.063155 z m 7.32398,-1.181296 v 0.945036 h -0.8269 v -1.890059 h 0.35439 q 0.23626,0 0.35439,0.354382 0.11809,0.472518 0.11809,0.590641 z m -4.9614,-6.969591 q 0,0.590643 0.11809,1.299416 0.11808,0.708773 -0.35439,0.708773 0,-1.771933 0.23626,-2.008189 z m -7.20585,-0.708774 -0.11809,0.472516 q 0,0.590644 -0.59065,0.826901 -0.47251,0.236257 -0.59064,0.236257 -1.06316,0 -1.06316,-1.181286 l 0.11808,-0.708774 q 0,-0.118123 0.59064,-0.590642 0.70878,-0.472516 0.59064,-0.354388 1.06316,0.472516 1.06316,1.299416 z m 7.67836,-3.425732 v 0.236256 l 0.11808,0.118123 q 0.23626,0.118124 -0.11808,0.472515 -0.23625,0.472515 -0.35438,0.590644 l -0.35439,0.472515 -0.47251,-2.126317 q 0.94503,0 1.18128,0.236257 z m 3.66199,-0.590644 v 0.590644 q 0,0.236256 -0.35438,0.354386 -0.35438,0.118123 -0.35438,0.118123 -0.3544,0 -0.3544,-0.472514 0,-0.354386 -0.23625,-0.590644 V 86.12093 q 0,-0.236257 0.11808,-0.354386 v -0.118123 h 0.82691 q 0.35439,0 0.35439,0.590643 z m -8.97778,-4.72515 q -3.07135,3.071348 -3.66199,3.071348 -0.11809,-0.590644 -0.11809,-1.181288 0,-0.590644 0,-1.063158 0,-2.598833 0.8269,-2.598833 0.59064,0 1.41754,0.826902 0.94503,0.826901 1.53568,0.945029 z m 2.00819,-5.197663 h -0.94503 l 0.47252,-1.299416 q 0.11809,-0.118123 0.23625,0.354386 0.23626,0.590644 0.23626,0.94503 z m 44.29827,-2.00819 0.8269,0.708774 q 0.11809,0.118123 -0.35438,0.590642 -0.47252,0.472516 -0.8269,-0.590642 l -0.11808,-0.236258 q 0,-0.354386 0.47251,-0.472516 z m -42.17195,-1.417544 h 1.18128 v 3.78012 q -0.94503,-0.472516 -1.06316,-1.535674 -0.11809,-1.063158 -0.11809,-2.244446 z m 39.45499,-0.590644 q 0,0.236258 0.11809,0.354386 v 0.236258 q 0,0.8269 -0.70879,1.063158 -0.70877,0.236258 -1.2994,0.236258 -0.59065,0 -1.18129,-0.354386 V 73.599283 L 425.197,73.48116 q -0.23626,-0.118123 0.35437,-0.826902 0.59066,-0.708772 0.70878,-0.826901 h 0.70878 q 0.94502,0 1.41754,0.472515 z m -11.22223,-0.94503 q -0.11809,0.472515 -1.06316,0.472515 v -1.890059 q 0,0.118123 0.47252,0.354386 0.59064,0.236257 0.59064,1.063158 z m 3.66199,-0.354386 -0.4725,-0.826901 h 0.94502 q -0.11808,0 -0.35439,0.354386 -0.11809,0.354387 -0.11809,0.472515 z m -35.55675,-6.615209 v -0.354386 l 2.24445,1.181288 q 0.11809,0.118123 -0.35438,0.236256 -0.35439,0.118123 -0.59065,0.118123 -1.41754,0 -1.41754,-0.94503 0,-0.118123 0.11808,-0.236258 z"
       style="font-style:normal;font-variant:normal;font-weight:normal;font-stretch:normal;font-size:101.219px;line-height:1.25;font-family:'DS Eraser Cyr';-inkscape-font-specification:'DS Eraser Cyr';fill:#ffffff;fill-opacity:1;stroke:none;stroke-width:2.95321"
       id="path853" /></g></svg>
