<?xml version="1.0" encoding="UTF-8"?>
<svg width="1025.3" height="1025.3" version="1.1" xmlns="http://www.w3.org/2000/svg">
    <defs>
        <linearGradient id="linearGradient3153" x1="114.29" x2="500" y1="43.791" y2="995.22"
                        gradientUnits="userSpaceOnUse">
            <stop stop-color="#0052ff" offset="0"/>
            <stop stop-color="#00c1ff" offset="1"/>
        </linearGradient>
        <filter id="filter3987" x="-.041906" y="-.04924" width="1.1024" height="1.1204"
                color-interpolation-filters="sRGB">
            <feFlood flood-color="rgb(0,0,0)" flood-opacity=".766" result="flood"/>
            <feComposite in="flood" in2="SourceGraphic" operator="in" result="composite1"/>
            <feGaussianBlur result="blur" stdDeviation="15"/>
            <feOffset dx="16" dy="16" result="offset"/>
            <feComposite in="SourceGraphic" in2="offset" result="composite2"/>
        </filter>
    </defs>
    <g transform="translate(184.08 -8.2861)">
        <rect x="-171.43" y="20.934" width="1e3" height="1e3" fill="url(#linearGradient3153)" stroke="#0000b3"
              stroke-linecap="round" stroke-linejoin="round" stroke-width="25.295"/>
        <g transform="scale(.92659 1.0792)" fill="#fff" filter="url(#filter3987)" aria-label="?-">
            <path d="m198.28 605.83h-173.64v-23.569q0-39.442 15.873-69.745 15.873-30.784 66.859-77.922l30.784-27.898q27.417-25.012 39.923-47.138 12.987-22.126 12.987-44.252 0-33.67-23.088-52.429-23.088-19.24-64.454-19.24-38.961 0-84.175 16.354-45.214 15.873-94.276 47.619v-151.03q58.201-20.202 106.3-29.822 48.1-9.62 92.833-9.62 117.36 0 178.93 48.1 61.568 47.619 61.568 139.49 0 47.138-18.759 84.656-18.759 37.037-63.973 79.846l-30.784 27.417q-32.708 29.822-42.809 48.1-10.101 17.797-10.101 39.442zm-173.64 71.188h173.64v171.24h-173.64z"/>
            <path d="m482.07 494.72h302.07v139.97h-302.07z"/>
        </g>
    </g>
</svg>
